<?xml version="1.0" encoding="UTF-8"?>
<svg id="Layer_1" data-name="Layer 1" xmlns="http://www.w3.org/2000/svg" viewBox="0 0 163.86 390">
  <defs>
    <style>
      .cls-1 {
        fill: #272727;
      }

      .cls-2 {
        fill: #fff;
      }
    </style>
  </defs>
  <g>
    <path class="cls-2" d="M122.71,163.17v33.68c0,6.14-4.4,11.4-10.44,12.49l-41.09,7.41c-5.53,1-10.62-3.25-10.62-8.88v-117.54c0-3.78-3.06-6.84-6.84-6.84h-6.15c-3.78,0-6.84,3.06-6.84,6.84v113.39c0,7.69,1.54,11.65,11.43,17.14,9.89,5.49,10.55,6.15,41.76,0,13.19-2.6,22.69-4.96,27.18-6.38,4.93-1.55,7.6-6.14,7.6-11.3v-40.02h-5.99Z"/>
    <path class="cls-1" d="M65.41,226.25c-5.61,0-8.34-1.52-13.38-4.32l-.36-.2c-10.28-5.71-11.94-9.99-11.94-18.01v-113.39c0-4.32,3.51-7.83,7.83-7.83h6.15c4.32,0,7.83,3.51,7.83,7.83v117.54c0,2.39,1.05,4.63,2.88,6.16,1.83,1.53,4.23,2.17,6.58,1.74l41.09-7.41c5.58-1.01,9.62-5.85,9.62-11.51v-33.68c0-.55.44-.99.99-.99h5.99c.55,0,.99.44.99.99v40.02c0,5.94-3.18,10.64-8.29,12.25-4.18,1.32-13.54,3.69-27.29,6.4-15.27,3.01-23.31,4.41-28.7,4.41ZM47.57,84.48c-3.22,0-5.85,2.62-5.85,5.85v113.39c0,7.1,1.03,10.79,10.92,16.28l.36.2c9.28,5.16,10.25,5.7,40.73-.31,13.67-2.69,22.95-5.05,27.08-6.35,4.26-1.34,6.91-5.31,6.91-10.36v-39.03h-4.01v32.69c0,6.62-4.73,12.28-11.25,13.46l-41.09,7.41c-2.93.53-5.91-.26-8.2-2.17-2.28-1.91-3.59-4.71-3.59-7.68v-117.54c0-3.23-2.62-5.85-5.85-5.85h-6.15Z"/>
  </g>
  <g>
    <path class="cls-2" d="M107.85,163.17v28.8c0,6.14-4.39,11.39-10.43,12.48l-36.3,6.55c1.46,3.97,5.62,6.55,10.07,5.76l41.09-7.41c6.04-1.09,10.44-6.35,10.44-12.49v-33.68h-14.87Z"/>
    <path class="cls-1" d="M69.57,217.89c-4.14,0-7.92-2.56-9.38-6.55-.1-.27-.08-.58.07-.83.15-.25.4-.43.68-.48l36.3-6.55c5.57-1,9.62-5.84,9.62-11.51v-28.79c0-.55.44-.99.99-.99h14.87c.55,0,.99.44.99.99v33.68c0,6.63-4.73,12.29-11.25,13.46l-41.09,7.41c-.6.11-1.2.16-1.79.16ZM62.54,211.74c1.63,2.99,5.02,4.65,8.47,4.03l41.09-7.41c5.58-1,9.62-5.85,9.62-11.52v-32.69h-12.89v27.81c0,6.62-4.73,12.28-11.25,13.46l-35.05,6.32Z"/>
  </g>
  <path class="cls-1" d="M107.85,163.17v28.8c0,4.73-2.61,8.95-6.58,11.12l-1.66,1.81c3.54-1.16,6.18-2.33,9.07-5.19,1.57-1.55,7.72.33,8.6,2.15.88,1.81.55,3.8-1.29,5.07l1.25.37c3.34-2.31,5.49-6.17,5.49-10.44v-33.68h-14.87ZM116.67,198.35l-4.64-1.15c-.96-.24-1.63-1.06-1.63-2.01,0-1.36,1.34-2.35,2.72-2.01l4.64,1.15c.96.24,1.63,1.06,1.63,2.01,0,1.36-1.34,2.35-2.72,2.01Z"/>
  <g>
    <path class="cls-1" d="M123.2,31.62c.47-.94.52-2.04.13-3.02l-2.08-5.32c-4.36-11.12-14.43-18.98-26.28-20.49l-8.44-1.07c-.8-.1-1.61-.19-2.41-.27-.21-.02-.42-.04-.63-.07-.64-.06-1.28-.11-1.93-.16-.18-.01-.36-.03-.54-.04-.82-.06-1.65-.1-2.47-.14t-.01,0c-.81-.04-1.61-.06-2.41-.07-.18,0-.36,0-.53,0-.7,0-1.39,0-2.09,0-.13,0-.25,0-.38,0-.84.02-1.67.04-2.5.08-.04,0-.09,0-.14.01-.77.03-1.53.08-2.29.14-.17,0-.34.03-.5.03-.73.06-1.45.12-2.17.2-.09,0-.18.01-.27.02-.83.09-1.65.19-2.48.3-.09.01-.17.03-.26.03-.72.1-1.43.21-2.15.32-.17.03-.33.05-.5.08-.76.13-1.52.26-2.28.4-.03,0-.07.01-.11.02-.82.16-1.64.33-2.46.51-.11.02-.21.05-.31.07-.71.16-1.41.33-2.11.5-.14.03-.28.07-.41.1-1.62.42-3.24.87-4.83,1.38-.06.02-.13.04-.2.06-.77.24-1.53.49-2.3.76-.03.01-.06.02-.09.03-.01,0-.03,0-.05.01-.08.03-.16.06-.24.09l-.07.03c-.32.11-.63.23-.95.34l-.12.05c-.65.23-1.3.48-1.94.73l-.36.14c-.58.23-1.17.47-1.75.71-.12.05-.25.1-.37.15-1.36.58-2.71,1.19-4.05,1.83-.19.09-.37.18-.55.27-.48.23-.95.47-1.41.71-.23.11-.45.23-.67.35-.44.23-.88.46-1.31.7-.22.12-.44.24-.67.36-.45.26-.91.51-1.36.77-.19.11-.38.21-.56.32-.63.38-1.26.75-1.89,1.14l-6.83,4.23-.02.02c-1.99,1.23-3.83,2.61-5.52,4.13C5.66,30.65.98,41.38,1,52.45c0,.02-.01.05,0,.07,0,.02,0,.04,0,.06,0,.06,0,.15,0,.27.01,1.21.08,2.43.21,3.65,0,.04,0,.07,0,.09,0,.1.04.39.09.73.04.32.08.64.14.96.04.29.08.56.1.72,0,.03.02.08.04.17.1.58.21,1.16.35,1.75.04.19.11.37.19.53.39,1.44,1.55,2.54,3.01,2.82,1.96.38,2.96,2.59,1.96,4.32l-.84,1.46c-.46.8-.54,1.79-.2,2.66l1.74,4.45c.49,1.26,1.6,2.17,2.93,2.41l.35.07c1.98.37,3,2.58,1.99,4.33l-.81,1.39c-.48.81-.55,1.8-.21,2.67l1.78,4.54c.48,1.22,1.53,2.11,2.8,2.39l.57.13c1.97.43,2.92,2.67,1.86,4.38l-.74,1.19c-.51.82-.6,1.84-.25,2.75l1.76,4.49c.48,1.22,1.54,2.12,2.82,2.39l.53.11c1.97.42,2.94,2.67,1.87,4.38l-.74,1.19c-.51.82-.6,1.83-.24,2.74l1.78,4.54c.47,1.21,1.52,2.1,2.79,2.38l.58.13c1.97.44,2.91,2.7,1.83,4.4l-.71,1.12c-.52.83-.62,1.86-.26,2.77l1.73,4.42c.5,1.26,1.62,2.18,2.96,2.41l.26.05c1.99.35,3.04,2.58,2.02,4.34l-.79,1.36c-.47.81-.54,1.79-.2,2.66l1.74,4.43c.51,1.3,1.68,2.23,3.06,2.43l.19.03c1.97.28,3.09,2.42,2.18,4.2l-.69,1.32c-.46.87-.43,1.91.07,2.76.11.19.21.35.28.47,0,0,0,0,0,.01.05.08.12.17.17.25.19.31.39.61.59.9.01.02.03.04.04.05.1.16.21.31.32.46.13.18.25.36.38.54.04.06.08.11.12.17.07.09.13.17.2.25.05.07.09.13.14.19.13.17.27.33.4.5.12.16.24.32.37.47.01,0,.02.02.03.03.16.2.32.39.49.59.09.11.19.22.28.33.05.05.1.11.14.16.01,0,.01.02.02.03.19.21.38.42.57.62.06.07.13.13.19.21.45.48.92.95,1.39,1.41,0,0,.01,0,.02.01.04.04.09.08.13.12.3.28.6.56.91.83.03.02.05.05.08.07.05.05.1.08.15.12.49.43.98.83,1.49,1.23.04.03.07.06.12.1.04.04.1.07.14.11.14.1.27.21.41.31.02.01.03.03.05.04.2.15.4.3.61.44.03.02.07.04.1.07.28.19.56.39.84.58.06.04.12.08.18.12.04.03.09.06.13.09.05.04.1.07.15.1.15.1.3.19.45.28.02.01.03.02.05.03.02.01.04.02.05.03,2.53,1.58,5.24,2.84,8.07,3.78.04.01.07.03.11.04.04,0,.07.02.11.03h.03c1.73.56,3.51,1,5.32,1.3.04,0,.08.01.11.02,0,0,.01,0,.03,0,.1.02.2.03.3.05.51.08,1.01.15,1.52.2,0,0,.02,0,.03,0,0,0,0,0,.01,0,.49.06.99.1,1.48.13.06,0,.13.01.19.02.06,0,.12,0,.19.01.72.04,1.43.06,2.16.07h0s0,0,.01,0c.49,0,1,0,1.5-.03.15,0,.31-.02.46-.03.41-.02.81-.05,1.22-.08.05,0,.1,0,.16-.01.21-.02.41-.03.62-.06.02,0,.04,0,.05,0,.2-.02.39-.05.59-.07.11-.02.23-.03.34-.04.14-.02.28-.04.41-.06.38-.05.75-.11,1.13-.18.21-.03.43-.07.64-.11.34-.07.69-.15,1.03-.22.08-.02.16-.04.25-.05.03,0,.06-.02.09-.02.16-.04.32-.07.48-.11.05-.01.1-.03.15-.04.39-.1.79-.2,1.19-.32l.57-.16h.01s7.49-2.14,7.49-2.14l10.94-3.12c.73-.21,1.44-.42,2.17-.63,11.26-3.32,22.27-7.44,32.94-12.33l5.24-2.4c.41-.19.81-.38,1.2-.58.21-.1.41-.22.61-.33.18-.09.37-.19.55-.29.22-.12.44-.26.66-.39.15-.1.31-.18.47-.27.22-.14.44-.29.66-.44.14-.1.29-.18.43-.28.22-.15.43-.31.64-.46.14-.1.28-.19.41-.29.21-.15.41-.32.61-.48.14-.1.27-.21.41-.32.2-.16.39-.33.58-.5.13-.12.27-.22.39-.34.19-.17.37-.34.55-.51.13-.12.26-.24.38-.36.18-.17.35-.35.52-.52.12-.13.25-.25.37-.38.16-.18.32-.35.48-.53.12-.13.25-.27.37-.41.15-.17.29-.36.44-.53.12-.15.25-.29.37-.44.14-.17.27-.35.4-.53.12-.16.24-.32.36-.47.12-.18.24-.35.37-.53.12-.17.24-.33.35-.51.12-.17.22-.35.34-.53.11-.18.22-.35.34-.53.1-.17.2-.35.3-.53.11-.19.22-.37.33-.56.1-.17.18-.34.28-.52.1-.2.21-.39.31-.59.08-.17.16-.34.24-.51.1-.21.2-.41.3-.62.07-.17.14-.34.22-.51.09-.21.18-.42.27-.64.06-.17.13-.33.19-.51.08-.22.17-.44.25-.66.06-.17.11-.33.17-.5.07-.23.15-.46.23-.69.05-.16.1-.33.15-.5.06-.24.13-.47.2-.71.04-.16.08-.33.12-.5.06-.24.11-.48.17-.72.04-.16.07-.33.1-.49.05-.25.1-.49.14-.74.03-.16.06-.33.09-.49.03-.25.08-.51.11-.75.03-.17.04-.33.06-.5.03-.25.06-.5.09-.76.01-.17.02-.34.04-.5.01-.25.03-.51.05-.76.01-.17,0-.34.02-.5.01-.26.02-.51.02-.77,0-.17,0-.34,0-.5,0-.26,0-.52-.01-.77,0-.17-.02-.33-.03-.51,0-.26-.02-.51-.04-.76-.01-.17-.03-.35-.05-.52-.02-.25-.05-.5-.08-.76-.02-.18-.05-.35-.07-.52-.03-.25-.07-.5-.11-.75-.03-.18-.06-.36-.1-.54-.03-.17-.06-.35-.09-.52,0-.02-.01-.04-.02-.06-.02-.11-.04-.22-.07-.33-.3-1.37-1.59-2.29-2.98-2.08-.11.02-.24.04-.36.06-.01,0-.02,0-.04,0-.19.03-.38.06-.56.09-.09.02-.19.03-.29.04-.09.02-.19.03-.27.04-1.17.18-2.12-.94-1.76-2.07l1.38-4.36c.41-1.02.66-1.77.71-2.47.11-.33.12-.7-.02-1.05l-1.19-3.03c-.44-1.12-1.58-1.8-2.77-1.66l-.3.03h0s-1.71.2-1.71.2c-1.17.14-2.08-.99-1.7-2.11l1.06-3.15c.21-.63.51-1.23.81-1.82.42-.86.49-1.86.18-2.78,0-.03,0-.06-.02-.09l-1.16-2.97c-.43-1.09-1.51-1.77-2.68-1.67l-.29.02h0s-2.08-.01-2.08-.01c-1.16-.01-1.92-1.21-1.45-2.27l1.82-4.04c.6-.99.7-2.2.28-3.28l-1.22-3.11c-.41-1.06-1.46-1.73-2.59-1.68l-.28.02s0,0,0,0l-1.97.07c-1.19.04-2.01-1.18-1.52-2.27l1.94-4.24c.44-.93.47-1.99.1-2.94l-1.3-3.31c-.4-1.03-1.4-1.69-2.5-1.68h-.25s-.02,0-.03,0l-2.43-.12c-1.14-.06-1.86-1.27-1.36-2.31l1.89-3.91c.58-.98.68-2.18.26-3.24l-1.21-3.08c-.39-.99-1.34-1.66-2.41-1.68h-.22s-.03,0-.04,0l-2.61-.2c-1.14-.09-1.82-1.31-1.31-2.33l1.98-3.9c.53-.96.6-2.12.2-3.14l-1.22-3.12c-.38-.96-1.29-1.62-2.32-1.68h-.21s-.04-.02-.05-.02l-2.6-.14c-1.16-.06-1.87-1.29-1.35-2.33l2.01-4.01Z"/>
    <path class="cls-1" d="M74.49,183.42h0c-.72,0-1.44-.03-2.2-.07h-.11c-.13-.01-.18-.02-.24-.02-.55-.04-1.07-.08-1.57-.14-.02,0-.03,0-.05,0h0c-.53-.06-1.05-.13-1.57-.21l-.13-.02s-.1-.01-.15-.02c-.02,0-.04,0-.06,0l-.12-.02c-1.82-.31-3.66-.75-5.46-1.33-.02,0-.05-.02-.07-.03-.02,0-.04-.01-.06-.02l-.11-.04c-2.94-.97-5.72-2.27-8.28-3.87,0,0,0,0,0,0-.08-.04-.14-.08-.17-.1-.1-.06-.26-.16-.42-.26-.09-.06-.15-.1-.21-.14-.04-.02-.09-.06-.15-.1h0s-.03-.02-.06-.04c-.32-.22-.6-.4-.87-.59-.01-.01-.06-.04-.08-.06-.03-.02-.06-.04-.1-.07-.17-.12-.39-.27-.6-.44-.02-.01-.04-.03-.07-.05l-.38-.28s-.06-.05-.09-.07c-.03-.01-.08-.05-.13-.1l.59-.8-.64.75c-.57-.44-1.08-.86-1.54-1.27-.07-.05-.14-.11-.19-.16-.35-.3-.65-.59-.96-.88l-.07-.07s-.06-.05-.08-.07c-.51-.49-.99-.98-1.43-1.45l-.08-.09s-.09-.1-.14-.15c-.16-.17-.36-.38-.55-.6,0,0,0,0-.01-.02-.02-.02-.04-.04-.06-.07-.03-.03-.06-.07-.09-.1l-.16-.19c-.05-.06-.11-.12-.16-.18-.16-.19-.33-.39-.5-.59h0s0-.01-.01-.02c0,0-.01-.02-.02-.03-.13-.16-.26-.33-.39-.5-.12-.14-.26-.32-.39-.49l-.16-.22s-.05-.06-.09-.12l-.07-.1s-.05-.06-.07-.1c-.03-.04-.06-.08-.09-.12-.1-.13-.19-.27-.29-.41l-.1-.14c-.1-.14-.21-.29-.31-.45,0,0,0,0,0,0-.01-.01-.04-.05-.05-.07-.21-.3-.41-.62-.61-.94l-.16-.23s-.03-.04-.04-.07c-.08-.12-.17-.27-.27-.45-.67-1.13-.7-2.55-.08-3.72l.69-1.32c.28-.55.27-1.19-.01-1.74-.29-.56-.81-.93-1.43-1.02l-.18-.02c-1.74-.25-3.21-1.42-3.85-3.05l-1.74-4.43c-.45-1.14-.35-2.46.27-3.52l.79-1.36c.32-.55.35-1.2.08-1.78-.27-.58-.79-.98-1.41-1.09l-.26-.05c-1.66-.29-3.08-1.45-3.7-3.02l-1.73-4.42c-.47-1.2-.34-2.56.34-3.65l.71-1.12c.34-.54.4-1.18.15-1.77-.24-.59-.74-1.01-1.36-1.14l-.59-.13c-1.58-.34-2.89-1.46-3.49-2.98l-1.78-4.54c-.46-1.18-.34-2.54.32-3.62l.74-1.19c.34-.54.38-1.18.14-1.76-.25-.59-.75-1-1.37-1.13l-.53-.11c-1.61-.34-2.93-1.46-3.53-2.99l-1.76-4.49c-.47-1.19-.34-2.55.33-3.63l.74-1.19c.33-.54.38-1.18.14-1.76-.25-.59-.75-1-1.37-1.13l-.57-.13c-1.6-.34-2.91-1.46-3.51-2.99l-1.78-4.54c-.46-1.17-.36-2.46.27-3.53l.8-1.39c.32-.55.35-1.19.08-1.77-.27-.58-.78-.98-1.4-1.09l-.35-.07c-1.64-.3-3.05-1.45-3.66-3.02l-1.74-4.45c-.45-1.14-.35-2.46.26-3.52l.84-1.46c.32-.55.35-1.19.09-1.76-.26-.57-.76-.97-1.38-1.09-1.78-.34-3.24-1.69-3.75-3.43-.11-.22-.19-.45-.23-.68-.13-.59-.25-1.18-.35-1.78v-.03c-.03-.08-.04-.14-.04-.18-.02-.13-.07-.41-.1-.72-.05-.29-.09-.63-.14-.96-.05-.35-.09-.66-.1-.76v-.13c-.13-1.15-.21-2.41-.22-3.69v-.27s0-.05,0-.08c0-.06,0-.11,0-.15,0-11.44,4.88-22.37,13.4-29.98,1.73-1.56,3.64-2.98,5.66-4.23l6.86-4.25c.63-.39,1.27-.77,1.91-1.15l.57-.32c.4-.23.81-.46,1.22-.69l.15-.09c.24-.13.46-.26.69-.38.4-.22.84-.45,1.27-.68.25-.14.49-.26.73-.38.46-.23.93-.48,1.42-.71.19-.1.37-.19.56-.28,1.37-.66,2.74-1.28,4.08-1.85.11-.05.25-.11.39-.16.56-.24,1.15-.48,1.74-.71l.36-.14c.65-.26,1.31-.51,1.97-.74l1.35-.49s.09-.03.14-.04c.02,0,.04-.01.06-.02.74-.26,1.5-.51,2.27-.75.08-.03.17-.06.25-.08,1.5-.47,3.14-.94,4.85-1.38l.43-.1c.7-.18,1.41-.35,2.13-.51.09-.02.22-.05.34-.08.8-.18,1.63-.35,2.46-.51l.12-.02c.75-.15,1.52-.28,2.29-.41l.49-.08c.75-.12,1.47-.23,2.2-.33.12-.01.19-.02.25-.03.85-.11,1.68-.21,2.52-.3l.3-.02c.7-.07,1.43-.14,2.17-.2l.53-.04c.75-.06,1.52-.11,2.3-.14h.12c.86-.05,1.7-.08,2.54-.09h.4c.69-.01,1.39-.02,2.09-.01h.53c.79.01,1.57.03,2.36.07.03,0,.06,0,.09,0,.83.03,1.67.08,2.5.14.12,0,.26.02.41.03h.13c.65.06,1.3.11,1.95.17l.65.07c.79.07,1.6.17,2.41.27l8.45,1.07c12.21,1.56,22.59,9.64,27.08,21.11l2.08,5.32c.49,1.24.42,2.63-.17,3.82,0,0,0,0,0,0l-2.01,4.01c-.14.27-.03.5.02.59.05.09.2.29.5.31l2.6.14s.06,0,.09,0h.17c1.42.08,2.68.99,3.19,2.31l1.22,3.13c.51,1.3.42,2.75-.25,3.97l-1.96,3.87c-.13.26-.04.49.01.58.05.09.19.29.49.32l2.81.2c1.47.03,2.77.93,3.3,2.31l1.21,3.08c.52,1.34.41,2.82-.31,4.06l-1.87,3.87c-.13.27-.03.5.02.59.05.08.2.28.5.3l2.43.12s0,0,.01,0h.19c1.5-.02,2.89.9,3.44,2.3l1.3,3.31c.47,1.2.42,2.56-.13,3.72l-1.93,4.23c-.13.28-.01.51.05.6.06.09.2.29.54.27l1.97-.07s.05,0,.07,0h.19c1.57-.09,3,.84,3.57,2.29l1.22,3.11c.52,1.33.4,2.85-.32,4.09l-1.79,3.99c-.12.28-.01.5.04.59.05.08.21.28.52.29h2.01s.28,0,.28,0c1.61-.13,3.08.79,3.67,2.3l1.16,2.97c.03.06.05.13.06.21.36,1.15.27,2.38-.26,3.46-.28.56-.56,1.13-.76,1.71l-1.06,3.15c-.1.29.04.51.11.59.06.08.24.26.54.22l1.67-.19s.05,0,.07,0l.3-.03c1.62-.18,3.19.76,3.79,2.29l1.19,3.03c.2.51.23,1.08.08,1.6-.08.79-.35,1.6-.75,2.62l-1.37,4.33c-.09.3.05.51.12.59.07.08.26.25.56.21l.26-.04c.13-.02.21-.03.28-.04l.11-.02c.15-.02.31-.05.48-.07h0s.06,0,.09,0l.3-.05c1.88-.29,3.68.97,4.09,2.85l.06.31s.02.07.02.1h0l.09.52c.04.18.07.37.1.56.04.25.08.51.11.77.03.2.05.37.07.55.03.27.06.52.08.78v.06c.02.16.04.32.05.48.02.25.04.52.04.79,0,.15.02.32.03.49,0,.22,0,.42.01.62v.19c0,.17,0,.33,0,.5,0,.3-.01.56-.03.83v.16c0,.12,0,.25-.02.37l-.05.74c-.02.19-.03.35-.04.51l-.11.98c-.01.12-.03.24-.05.37-.01.11-.04.25-.06.4l-.14.86c-.04.25-.09.51-.15.77l-.04.17c-.02.12-.05.24-.08.36-.05.22-.11.47-.17.72l-.48,1.75c-.05.16-.1.32-.15.48l-.08.23c-.04.12-.07.19-.09.26-.03.09-.06.19-.1.28-.07.2-.16.44-.25.67-.04.11-.09.23-.13.36l-.06.15c-.1.26-.19.47-.29.69l-.22.51c-.06.13-.11.23-.16.34-.05.1-.1.2-.14.3-.09.19-.17.37-.26.54l-.31.6c-.1.19-.19.37-.29.55-.1.19-.22.39-.34.59l-.75,1.23c-.08.13-.17.27-.26.4-.11.17-.23.33-.35.5l-.38.55c-.09.12-.17.23-.25.33l-.32.42c-.07.1-.15.19-.22.29-.07.1-.16.2-.24.3l-.29.35c-.1.12-.2.25-.3.37-.13.15-.26.29-.39.43-.13.16-.3.34-.47.53-.15.15-.27.28-.39.4l-.19.19c-.12.12-.24.25-.36.36-.07.07-.17.17-.28.26l-.26.25c-.14.13-.28.27-.42.39-.07.06-.15.13-.24.2l-.15.13c-.22.19-.4.35-.6.52-.15.12-.29.23-.44.34-.18.15-.39.32-.62.49-.12.09-.27.2-.43.31l-.16.12c-.16.12-.32.24-.49.35-.08.05-.16.11-.24.16-.06.04-.12.08-.18.12l-.69.45c-.1.06-.19.11-.28.17-.07.04-.13.08-.2.12l-.28.17c-.14.09-.29.17-.43.25-.17.1-.38.21-.58.31-.18.1-.4.23-.62.34-.39.2-.8.4-1.23.6l-5.24,2.4c-10.65,4.88-21.78,9.04-33.07,12.37-.73.21-1.45.43-2.18.63l-18.4,5.25s-.03.01-.04.01l-.57.16c-.4.11-.81.22-1.22.32l-.66.16s-.07.02-.11.03l-1.28.27c-.24.05-.46.08-.69.12-.37.07-.76.13-1.15.18-.07.02-.2.03-.33.05l-1.05.13s0,0,0,0c-.01,0-.02,0-.03,0h0c-.22.03-.44.05-.66.06,0,0-.06,0-.11,0-.47.04-.88.07-1.3.09l-.45.03c-.53.02-1.04.03-1.55.03-.01,0-.02,0-.04,0ZM70.57,181.22s0,0,.01,0c.47.05.96.1,1.44.13.03,0,.09,0,.14.01h.14s.08.01.08.01c.71.04,1.39.06,2.06.07.03,0,.06,0,.09,0,.47,0,.95,0,1.43-.03l.44-.02c.42-.02.81-.05,1.2-.08,0,0,.05,0,.1,0,.24-.02.44-.04.63-.06h0s.05,0,.07,0h0s.98-.12.98-.12c.1-.01.19-.03.29-.04.42-.06.77-.11,1.13-.18.23-.04.43-.07.63-.11l1.25-.27s.01,0,.02,0c.04,0,.07-.02.11-.02l.57-.14c.39-.1.77-.2,1.16-.31l.54-.15s.03,0,.04-.01l18.43-5.26c.72-.21,1.44-.42,2.16-.63,11.2-3.3,22.24-7.43,32.81-12.28l5.24-2.4c.39-.18.78-.37,1.16-.56.21-.1.39-.21.58-.31.21-.11.38-.19.54-.29.14-.08.26-.15.38-.23l.28-.17c.06-.04.15-.09.24-.14.07-.04.13-.08.2-.12l.65-.43c.05-.04.14-.09.22-.15.06-.04.12-.08.18-.12.15-.1.29-.21.44-.31l.19-.14c.14-.1.27-.19.39-.28.22-.16.4-.31.58-.46.16-.12.29-.22.41-.32.18-.15.35-.3.52-.45l.2-.18c.07-.06.14-.12.21-.18.14-.12.25-.23.37-.34l.29-.27c.08-.07.15-.14.22-.21.13-.13.24-.24.34-.34l.19-.19c.11-.12.24-.25.38-.38.13-.14.28-.31.42-.48.15-.16.26-.28.38-.41.09-.1.17-.21.26-.31l.32-.39c.06-.08.13-.15.19-.23.07-.09.14-.18.2-.26l.34-.44c.07-.09.14-.18.21-.27l.36-.51c.13-.19.24-.34.34-.49.08-.12.15-.23.22-.35l.72-1.19c.11-.18.21-.36.31-.53.1-.17.18-.34.27-.51l.3-.58c.07-.15.15-.31.23-.48.05-.11.1-.22.16-.33l.34-.77c.09-.21.18-.41.26-.62l.05-.14c.04-.1.08-.21.12-.32.1-.25.18-.46.25-.66.03-.09.06-.16.08-.23.03-.1.07-.2.1-.3l.06-.2c.05-.14.1-.29.14-.43l.46-1.66c.06-.23.11-.46.16-.7.03-.11.04-.19.06-.28l.04-.21c.05-.23.09-.46.13-.7l.13-.81c.02-.13.04-.26.06-.38.02-.12.03-.21.04-.29l.11-.95c0-.13.02-.3.04-.47l.05-.73c0-.11,0-.19.01-.28v-.21c.02-.26.02-.5.03-.75,0-.14,0-.31,0-.48v-.18c0-.19,0-.37-.01-.56l-.03-.48c0-.27-.02-.5-.04-.74,0-.15-.02-.29-.04-.42v-.08c-.03-.26-.06-.5-.08-.74-.02-.16-.04-.31-.06-.46-.04-.29-.07-.53-.11-.77-.03-.18-.06-.34-.09-.51l-.08-.49s-.01-.05-.02-.08h0l-.06-.32c-.18-.86-.99-1.43-1.87-1.3l-.3.05s-.09.01-.14.02c-.14.02-.28.04-.41.06l-.1.02c-.11.02-.21.03-.33.05l-.24.04c-.89.13-1.77-.2-2.36-.88-.58-.69-.77-1.61-.49-2.47l1.38-4.36s.02-.05.03-.07c.36-.91.6-1.59.64-2.17,0-.09.02-.17.05-.25.03-.08.05-.22,0-.37l-1.19-3.03c-.27-.7-.99-1.13-1.74-1.04l-.25.03s-.04,0-.05,0l-1.71.2c-.88.11-1.74-.24-2.31-.94-.57-.7-.73-1.62-.45-2.47l1.06-3.15c.24-.7.55-1.34.86-1.95.31-.63.36-1.35.13-2.03-.01-.03-.02-.07-.03-.1l-1.14-2.9c-.27-.68-.94-1.11-1.68-1.04l-.25.02s-.08,0-.13,0h-2.08c-.89-.02-1.69-.47-2.17-1.21-.47-.74-.54-1.66-.18-2.46l1.82-4.04s.03-.07.05-.1c.44-.73.51-1.62.21-2.41l-1.22-3.11c-.26-.66-.89-1.09-1.62-1.05l-.26.02s-.07,0-.11,0l-1.89.07c-.9.04-1.75-.4-2.25-1.15-.5-.75-.58-1.69-.2-2.52l1.93-4.24c.32-.69.35-1.48.08-2.17l-1.3-3.31c-.25-.64-.9-1.06-1.57-1.05h-.24s-.07,0-.11,0c0,0,0,0,0,0l-2.41-.12c-.87-.05-1.65-.52-2.09-1.27-.44-.75-.48-1.67-.1-2.46l1.89-3.91s.02-.05.04-.07c.43-.73.5-1.6.19-2.38l-1.21-3.08c-.25-.63-.84-1.04-1.5-1.05h-.23s-.09-.01-.11-.01l-2.59-.2c-.87-.07-1.64-.56-2.06-1.32-.42-.76-.44-1.67-.05-2.44l1.98-3.9c.4-.74.46-1.58.16-2.33l-1.22-3.13c-.24-.6-.81-1.01-1.45-1.05h-.2s-.08-.02-.12-.02l-2.54-.13c-.88-.05-1.67-.53-2.11-1.29-.44-.76-.47-1.68-.07-2.47l2.01-4.01c.34-.69.38-1.5.1-2.22l-2.08-5.32c-4.23-10.79-14-18.4-25.49-19.87l-8.44-1.07c-.79-.1-1.58-.19-2.37-.26l-.31-.03c-.11-.01-.23-.02-.34-.04-.61-.06-1.25-.11-1.88-.15h-.14c-.12-.02-.25-.03-.37-.03-.81-.06-1.6-.1-2.38-.13-.03,0-.07,0-.1,0-.8-.04-1.59-.06-2.38-.07h-.53c-.69,0-1.37,0-2.06,0h-.39c-.81.02-1.64.05-2.46.08h-.09c-.81.04-1.55.09-2.31.15l-.53.04c-.69.06-1.41.12-2.12.2l-.3.02c-.78.09-1.6.18-2.42.29-.1.01-.21.03-.32.04-.66.09-1.36.2-2.08.31l-.48.08c-.76.13-1.51.25-2.26.4l-.1.02c-.82.16-1.63.33-2.45.51-.11.02-.2.04-.28.06-.73.16-1.42.33-2.12.5l-.43.1c-1.66.43-3.27.88-4.76,1.36-.06.02-.1.03-.13.04-.02,0-.05.02-.07.02-.76.23-1.51.49-2.26.75-.02,0-.06.02-.09.03-.02,0-.05.02-.08.02-.03.01-.06.02-.09.03l-1.22.44c-.67.24-1.31.48-1.94.73l-.36.14c-.58.23-1.15.47-1.73.7-.13.05-.24.09-.34.14-1.33.56-2.68,1.17-4.03,1.82-.18.08-.34.17-.51.25-.51.25-.98.48-1.44.72-.23.11-.44.22-.64.33-.48.25-.9.47-1.3.69-.24.12-.45.24-.67.36l-.15.08c-.4.22-.8.45-1.2.68l-.56.32c-.62.37-1.25.74-1.87,1.13l-6.83,4.23c-1.94,1.21-3.75,2.56-5.4,4.04C6.61,31.12,1.97,41.54,1.99,52.45c0,.04,0,.09,0,.13,0,0,0,0,0,.01v.23c.02,1.25.09,2.44.21,3.59,0,0,0,.07,0,.08.01.11.04.38.09.7.04.32.08.63.13.94.04.32.08.57.1.72l.03.12c.11.61.22,1.18.35,1.75.02.1.05.19.1.28.03.06.06.13.08.2.29,1.07,1.17,1.9,2.24,2.11,1.26.25,2.28,1.05,2.8,2.22.53,1.16.46,2.46-.17,3.57l-.84,1.46c-.31.54-.36,1.22-.13,1.81l1.74,4.45c.37.93,1.2,1.62,2.18,1.8l.36.07c1.24.23,2.3,1.06,2.83,2.21.54,1.17.48,2.47-.17,3.59l-.81,1.39c-.33.55-.38,1.21-.14,1.82l1.78,4.54c.36.91,1.14,1.58,2.09,1.78l.57.13c1.23.27,2.27,1.13,2.76,2.29.49,1.17.39,2.5-.28,3.58l-.74,1.19c-.34.56-.41,1.25-.17,1.86l1.76,4.49c.36.91,1.14,1.58,2.1,1.78l.53.11c1.24.26,2.28,1.12,2.78,2.29.5,1.17.39,2.5-.27,3.58l-.73,1.19c-.34.56-.4,1.25-.17,1.86l1.78,4.54c.35.9,1.13,1.57,2.08,1.77l.59.14c1.24.28,2.27,1.14,2.76,2.32.49,1.17.37,2.51-.31,3.58l-.71,1.12c-.35.56-.42,1.26-.18,1.88l1.73,4.42c.37.94,1.21,1.62,2.2,1.8l.27.05c1.25.22,2.32,1.04,2.86,2.2.54,1.15.48,2.5-.16,3.61l-.79,1.36c-.32.55-.37,1.22-.14,1.81l1.74,4.43c.38.97,1.26,1.66,2.29,1.81l.18.02c1.27.18,2.33.93,2.92,2.06.59,1.13.59,2.43.02,3.56l-.7,1.33c-.3.56-.28,1.25.04,1.79.11.19.2.34.27.45,0,.01.02.02.02.04l.14.21c.19.31.38.59.56.86,0,0,0,0,0,.01.01.02.05.06.06.08.1.15.2.29.3.43l.11.16c.08.12.17.24.26.36.01.02.03.04.04.06.04.05.07.09.1.13l.34.45c.1.13.23.29.36.45.13.18.25.32.37.47,0,0,.01.01.02.02,0,0,0,0,0,.01.16.19.31.38.47.57l.13.15c.06.06.11.13.17.19.02.02.07.08.12.14,0,0,.01.01.02.02.18.2.36.4.55.6l.09.1s.09.09.13.14c.38.41.82.85,1.29,1.3.02.01.03.02.04.04l.13.11c.32.3.61.57.91.83h0s.04.04.08.07c.06.05.11.09.15.12.42.37.9.76,1.44,1.18.02.01.07.05.11.09,0,0,.06.05.06.05.02.01.06.04.09.07l.38.28s.06.05.09.07c.2.15.37.28.54.4.07.05.11.07.14.1.26.18.53.36.79.54.03.01.1.06.17.11.02.01.06.04.07.05l.07.04s.13.08.14.09c.13.08.28.18.42.26,0,0,.02.01.03.02.03.01.05.03.08.04,2.44,1.52,5.08,2.76,7.86,3.68,0,0,.06.02.08.03.04.01.08.02.12.04.02,0,.08.03.1.04,1.64.52,3.39.95,5.12,1.24h.07s.05.02.07.02l.13.02c.07,0,.13.02.2.03.46.07.95.14,1.45.19.02,0,.03,0,.04,0ZM55.33,175.94s0,0,0,0c0,0,0,0,0,0ZM150.45,100.51s0,.01,0,.02v-.02ZM150.41,100.37h0s0,0,0,0ZM1.98,52.4h0s0,0,0,0ZM1.98,52.4h0s0,0,0,0ZM45.13,6.97s0,0-.01,0c0,0,0,0,.01,0Z"/>
  </g>
  <path class="cls-1" d="M119.97,172.47l-1.33-3.72c3.39-1.21,6.78-2.51,10.1-3.87,4.72-1.93,9.46-4.1,14.04-6.19l.13-.06c5.37-2.46,9.77-6.28,12.74-11.04,3.61-5.81,5.02-12.95,3.85-19.59-.23-1.33-.38-1.61-.68-1.7-.12-.02-.54.05-.81.1-.92.16-2.3.4-3.58-.5-1.43-1-1.83-2.54-1.18-4.59l.86-2.74c.12-.39.26-.77.4-1.15.15-.4.29-.81.41-1.22.16-.55.23-.9.2-1.04-.03-.1-.08-.21-.13-.32l-.11-.28c-.1-.26-.2-.52-.3-.78-.18-.48-.36-.97-.57-1.44-.08-.19-.23-.55-1.04-.45-.16.02-.33.05-.5.08-.67.11-1.51.26-2.38.07-1-.22-1.81-.8-2.29-1.64-.54-.95-.62-2.18-.22-3.37l.29-.86c.19-.58.39-1.15.58-1.73.17-.51.38-.96.58-1.39.39-.84.62-1.38.55-1.86-.05-.39-.26-.87-.47-1.37-.08-.2-.16-.39-.24-.59-.06-.16-.12-.32-.18-.48-.15-.42-.34-.93-.51-1.08-.13-.11-.3-.13-1.07-.14h-.33c-.15-.01-.29,0-.44.01-.98.04-2.47.09-3.63-.98-1.24-1.16-1.43-2.73-.57-4.66l1.18-2.63c.08-.18.17-.37.26-.55.23-.48.45-.93.48-1.26.04-.43-.18-.98-.44-1.61l-.14-.35c-.09-.24-.18-.49-.27-.74-.17-.48-.33-.93-.52-1.26-.06-.11-.19-.35-1.01-.32-.16,0-.33.02-.51.04-.83.08-1.85.17-2.84-.23-.9-.36-1.59-1.04-1.94-1.91-.38-.95-.33-2.1.13-3.14.23-.52.48-1.03.74-1.55.46-.93.88-1.8,1.18-2.67.28-.82-.32-2.18-.85-3.37-.15-.33-.29-.66-.42-.97-.17-.41-.39-.56-.84-.58-.65-.02-1.3-.05-1.95-.09l-.35-.02c-1.3-.07-2.43-.63-3.12-1.54-.61-.81-.81-1.84-.56-2.88.17-.71.5-1.33.77-1.83.08-.15.16-.3.24-.45.14-.29.29-.57.44-.86.75-1.45,1.19-2.38.87-3.24-.19-.52-.4-1.04-.6-1.55l-.32-.81c-.36-.92-.53-.98-.66-1.02-.27-.08-.78-.1-1.23-.11-.27,0-.52-.02-.77-.04l-.3-.02c-.93-.05-2.86-.16-3.8-2.05-.82-1.65-.07-3.08.33-3.85l1.41-2.78c.44-.87.55-1.34.43-1.81-.11-.41-.3-.87-.5-1.35-.1-.24-.2-.47-.29-.7-.06-.15-.12-.31-.17-.46-.15-.41-.33-.91-.5-1.06-.17-.15-.58-.18-1.23-.21h-.12c-.18-.02-.36-.01-.56-.01-.72,0-1.6,0-2.45-.32-.94-.36-1.66-1.05-2.02-1.97-.39-.98-.33-2.11.15-3.12.42-.88.87-1.75,1.31-2.62l.64-1.27c.38-.76-.02-1.8-.66-3.31-.14-.32-.27-.63-.39-.94l-.28-.71c-.62-1.6-1.21-3.12-1.95-4.56-2.41-4.71-5.5-7.91-10.66-11.03-1.92-1.16-5.86-2.71-7.92-3.38l1.24-3.76c2.14.7,6.4,2.35,8.73,3.76,5.84,3.54,9.35,7.19,12.13,12.61.83,1.63,1.49,3.31,2.12,4.93l.27.7c.11.27.23.55.35.83.75,1.76,1.78,4.17.56,6.63l-.65,1.29c-.38.75-.76,1.51-1.14,2.27.21,0,.44,0,.61,0,.27,0,.53,0,.77.01h.11c1.02.06,2.43.13,3.64,1.21.91.81,1.31,1.88,1.59,2.66.05.13.09.26.14.38.08.2.17.41.25.61.24.56.5,1.2.68,1.88.48,1.84-.1,3.36-.73,4.6l-1.43,2.82s-.04.07-.06.11c.09,0,.17.01.24.01.13,0,.25.01.38.02.19.01.39.02.6.03.7.02,1.49.05,2.26.29,2.12.66,2.84,2.48,3.18,3.35l.31.79c.22.55.44,1.1.64,1.65.94,2.54-.22,4.79-1.07,6.43-.13.26-.27.52-.39.77-.1.2-.21.4-.32.61-.08.14-.16.29-.23.43h.21c.62.04,1.25.08,1.87.1,2.03.06,3.63,1.18,4.39,3.05.11.27.24.56.37.86.78,1.76,1.74,3.95.98,6.22-.38,1.12-.89,2.16-1.38,3.16-.19.39-.39.79-.57,1.18.19-.01.41-.03.57-.05.26-.02.5-.04.73-.05,2.81-.11,4.09,1.41,4.6,2.33.36.64.6,1.3.8,1.89.07.21.15.42.23.62l.13.32c.37.92.83,2.06.71,3.43-.09,1.05-.51,1.93-.85,2.64-.07.15-.15.3-.21.46l-1.18,2.63s-.02.05-.04.08c.17,0,.34,0,.47-.01.21,0,.43-.01.61-.01h.29c1.02-.02,2.41,0,3.7,1.13.92.82,1.32,1.9,1.61,2.69.05.13.1.26.15.39.06.16.13.33.2.5.29.68.61,1.46.74,2.35.23,1.65-.38,2.99-.87,4.06-.17.36-.32.7-.43,1.02-.19.57-.38,1.14-.58,1.71l-.24.71c.15-.02.31-.05.43-.07.25-.04.5-.08.73-.11,2.28-.25,4.24.83,5.1,2.82.23.53.43,1.07.64,1.61.09.24.18.49.28.73l.08.2c.09.22.18.45.25.67.41,1.3.02,2.62-.19,3.33-.14.48-.31.96-.49,1.44-.12.33-.24.67-.35,1.01l-.86,2.74s-.01.04-.02.06c.12-.02.24-.04.34-.06.72-.13,1.71-.3,2.74.05,2.64.88,3.09,3.41,3.33,4.77,1.33,7.59-.27,15.74-4.39,22.36-3.38,5.43-8.37,9.77-14.45,12.55l-.13.06c-4.62,2.11-9.39,4.3-14.19,6.26-3.37,1.38-6.83,2.7-10.27,3.93Z"/>
  <path class="cls-2" d="M110.09,35.95c.66.9,1.71,1.43,2.81,1.49l12.49.67c1.03.06,1.94.71,2.32,1.68l1.01,2.58c.4,1.03-.37,2.13-1.47,2.11l-8.18-.17c-2.83-.06-4.8,2.77-3.77,5.4l.1.26c.52,1.33,1.8,2.23,3.24,2.26l12.29.26c1.07.02,2.02.68,2.41,1.68l1.05,2.68c.39,1.01-.34,2.1-1.42,2.11l-8.26.11c-2.76.04-4.64,2.82-3.63,5.4l.1.26c.54,1.38,1.88,2.27,3.35,2.25l11.91-.16c1.1-.01,2.1.65,2.5,1.68l1.1,2.8c.38.98-.31,2.05-1.36,2.11l-1.9.09c-2.58.12-4.43,2.32-3.85,4.84.43,1.9,2.15,3.17,4.06,3.08l4.99-.24c1.13-.05,2.18.62,2.59,1.68l1.13,2.88c.38.96-.28,2.02-1.31,2.11l-8.42.7c-2.64.21-4.33,2.91-3.36,5.38.64,1.63,2.27,2.65,4.01,2.5l10.88-.89c1.17-.1,2.25.58,2.68,1.67l1.16,2.97c.37.95-.25,1.98-1.26,2.09l-8.49.99c-2.58.3-4.17,2.96-3.23,5.38.33.84.92,1.51,1.65,1.95s1.6.64,2.49.54l10.53-1.22c1.19-.13,2.33.55,2.77,1.66l1.19,3.03c.36.93-.23,1.95-1.2,2.09l-8.56,1.29c-2.51.38-4.03,2.99-3.1,5.36.67,1.72,2.45,2.74,4.27,2.47,0,0,6.27-.94,9.81-1.47,1.39-.21,2.69.71,2.98,2.08,2.91,13.64-3.94,27.83-17.02,33.82l-5.24,2.4c-11.35,5.2-23.09,9.53-35.11,12.96l-19.01,5.43c-16.24,4.63-33.24-2.21-41.93-16.05-.61-.98-.24-2.28.8-2.79l21.15-10.54c.92-.46,1.59-1.23,1.93-2.12.34-.89.36-1.91-.01-2.86-.85-2.16-3.37-3.14-5.45-2.1l-20.6,10.27c-1.13.56-2.49.04-2.95-1.14l-1.6-4.09c-.37-.94.03-2,.93-2.46l21.67-11.15c.9-.46,1.56-1.23,1.89-2.12.34-.88.35-1.9-.02-2.84-.86-2.19-3.42-3.15-5.49-2.07l-20.42,10.51c-1.13.58-2.51.06-2.97-1.12l-1.6-4.07c-.36-.93.03-1.98.91-2.45l21.62-11.5c.89-.48,1.52-1.24,1.85-2.13.33-.88.34-1.88-.02-2.81-.86-2.2-3.46-3.16-5.54-2.05l-20.23,10.76c-1.13.6-2.53.08-3-1.11l-1.59-4.06c-.36-.92.02-1.96.88-2.44l21.56-11.85c1.74-.96,2.5-3.06,1.78-4.91-.87-2.22-3.5-3.18-5.59-2.02l-20.04,11.01c-1.13.62-2.55.11-3.03-1.1l-1.58-4.03c-.36-.91,0-1.94.86-2.42l21.5-12.22c.86-.48,1.47-1.25,1.78-2.12.31-.87.32-1.85-.04-2.77-.88-2.25-3.54-3.19-5.64-2l-19.84,11.28c-1.13.64-2.58.13-3.05-1.08l-1.57-4.01c-.35-.9,0-1.92.83-2.41l21.45-12.6c.84-.49,1.44-1.26,1.74-2.12.3-.87.3-1.83-.06-2.74-.11-.27-.24-.52-.39-.75-1.14-1.71-3.45-2.3-5.29-1.22l-19.65,11.55c-1.14.67-2.6.16-3.08-1.06l-1.56-3.98c-.35-.89,0-1.9.81-2.39l21.39-13c1.64-1,2.33-3.04,1.63-4.82-.19-.49-.46-.91-.8-1.26-1.23-1.32-3.29-1.68-4.94-.68l-19.07,11.59c-1.26.77-2.89.06-3.21-1.38C-1.66,44.84,5.21,27.9,19.59,19l6.86-4.24C44.39,3.66,65.59-.94,86.52,1.73l8.44,1.07c10.83,2.71,21.93,9.36,26.28,20.49l1.81,4.62c.41,1.05-.4,2.17-1.53,2.11l-8.1-.46c-3.25-.19-5.48,3.49-3.35,6.4Z"/>
  <path class="cls-1" d="M143.37,160.59c-3.69,1.78-10.66,5.16-18.19,8.2-5.55,2.24-12.04,3.77-19.16,6.14-.72.21-1.44.42-2.17.63l-10.94,3.12-7.49,2.14h-.01s-.57.17-.57.17c-.4.11-.79.22-1.19.32-.05.01-.1.03-.15.04-.16.04-.32.07-.48.11-.03,0-.06.02-.09.02-.08.02-.16.04-.25.05-.35.07-.69.15-1.03.22-.22.04-.43.08-.64.11-.38.07-.75.13-1.13.18-.14.03-.27.04-.41.06-.11.02-.23.03-.34.04-.2.02-.39.05-.59.07-.01,0-.03,0-.05,0-.21.03-.42.04-.62.06-.05,0-.1,0-.16.01-.41.03-.8.06-1.22.08-.15,0-.31.02-.46.03-.5.02-1,.02-1.5.03,0,0,0,0-.01,0h0c-.72,0-1.44-.03-2.16-.07-.06,0-.12,0-.19-.01-.06,0-.13-.01-.19-.02-.49-.03-.99-.08-1.48-.13,0,0,0,0-.01,0,0,0-.02,0-.03,0-.51-.05-1.02-.12-1.52-.2-.1-.02-.2-.03-.3-.05-.01,0-.02,0-.03,0-.04,0-.08-.01-.11-.02-1.81-.3-3.59-.74-5.32-1.29h-.03s-.07-.04-.11-.05c-.04-.01-.07-.03-.11-.04-2.83-.94-5.54-2.2-8.07-3.78-.02,0-.03-.01-.05-.03-.02,0-.03-.02-.05-.03-.15-.09-.3-.19-.45-.28-.05-.03-.1-.06-.15-.1-.04-.03-.08-.05-.13-.09-.06-.04-.12-.08-.18-.12-.28-.19-.56-.38-.84-.58-.03-.02-.07-.04-.1-.07-.2-.14-.4-.29-.61-.44-.02-.01-.03-.03-.05-.04-.14-.1-.27-.21-.41-.31-.04-.04-.1-.07-.14-.11-.04-.03-.08-.07-.12-.1-.51-.4-1.01-.8-1.49-1.23-.04-.04-.1-.07-.15-.12-.02-.02-.05-.05-.08-.07-.3-.27-.6-.55-.91-.83-.04-.04-.09-.08-.13-.12,0,0-.01,0-.02-.01-.48-.46-.94-.93-1.39-1.41-.06-.07-.13-.13-.19-.21-.19-.2-.38-.41-.57-.62-.01,0-.01-.02-.02-.03-.04-.05-.09-.11-.14-.16-.09-.11-.19-.22-.28-.33-.17-.2-.33-.39-.49-.59-.01,0-.02-.02-.03-.03-.13-.16-.25-.31-.37-.47-.14-.17-.27-.33-.4-.5-.05-.07-.09-.13-.14-.19-.07-.08-.13-.17-.2-.25-.04-.06-.09-.11-.12-.17-.13-.17-.25-.35-.38-.54-.11-.15-.22-.3-.32-.46-.01-.02-.03-.04-.04-.05-.2-.29-.4-.6-.59-.9-.05-.08-.11-.16-.17-.25,0,0,0-.01,0-.01-.08-.12-.17-.28-.28-.47-.5-.84-.53-1.89-.07-2.76l.69-1.32c.9-1.78-.21-3.92-2.18-4.2l-.19-.03c-1.38-.2-2.55-1.13-3.06-2.43l-1.74-4.43c-.34-.87-.27-1.86.2-2.66l.79-1.36c1.02-1.76-.02-3.98-2.02-4.34l-.26-.05c-1.34-.23-2.46-1.15-2.96-2.41l-1.73-4.42c-.36-.91-.26-1.94.26-2.77l.71-1.12c1.08-1.71.14-3.96-1.83-4.4l-.58-.13c-1.27-.27-2.31-1.17-2.79-2.38l-1.78-4.54c-.35-.9-.26-1.92.24-2.74l.74-1.19c1.06-1.71.1-3.96-1.87-4.38l-.53-.11c-1.28-.27-2.34-1.17-2.82-2.39l-1.76-4.49c-.35-.9-.26-1.92.25-2.75l.74-1.19c1.06-1.71.11-3.96-1.86-4.38l-.57-.13c-1.28-.27-2.33-1.17-2.8-2.39l-1.78-4.54c-.34-.88-.27-1.86.21-2.67l.81-1.39c1.01-1.75-.01-3.96-1.99-4.33l-.35-.07c-1.33-.24-2.43-1.15-2.93-2.41l-1.74-4.45c-.34-.87-.27-1.86.2-2.66l.84-1.46c1-1.73,0-3.93-1.96-4.32-1.46-.28-2.63-1.39-3.01-2.82-.08-.16-.15-.34-.19-.53-.13-.59-.24-1.16-.35-1.75-.02-.08-.03-.14-.04-.17-.03-.16-.07-.43-.1-.72-.05-.32-.1-.64-.14-.96-.05-.34-.08-.63-.09-.73,0-.02,0-.05,0-.09-.13-1.22-.2-2.44-.21-3.65,0-.12,0-.22,0-.27,0-.02,0-.04,0-.06,0-.03,0-.05,0-.07-.02-11.07,4.66-21.8,13.07-29.32,2.89-2.07,4.9-3.5,5.58-3.97l.02-.02,6.83-4.23c5.38-3.33,11.06-6.08,16.94-8.21.36-.13.72-.27,1.09-.39.08-.03.16-.06.24-.09.01,0,.03-.01.05-.01,11.78-2.14,19.95-3.46,29.27,19.62-3,.18-6.36.84-9.31,1.44-1.51-4.19-6.14-15.42-13.03-13.85-6.39,1.45-7.45,11.69-4.73,18.63l43.97,112.22c3.07,7.83,7.44,13.76,11.53,16.06.66.37,1.02,1.27.65,2.37-.81,2.07-2.44,3.3-7.58,2.93.14.15,2.45,2.49,3.91,2.52-.16.18-.94.19-1.09.35l1.35.07c10.1.27,18.58-1.24,25.69-2.8,7.49-1.64,14.34-3.59,17.92-5.17Z"/>
  <path class="cls-1" d="M1,53.52c-.54,0-.99-.44-.99-.99-.05-14.1,7.07-26.95,19.07-34.37.45-.28,1.05-.15,1.35.3.29.45.17,1.05-.27,1.36C8.63,27.76,2.01,39.68,1.99,52.53c0,.55-.44.99-.99.99h0Z"/>
  <path class="cls-1" d="M1.7,59.81c.21,1.07.46,2.14.76,3.2-.3-1.06-.56-2.13-.76-3.2Z"/>
  <path class="cls-1" d="M85.42,180.83l15.38-4.39c-4.87,1.53-10.01,3.02-15.38,4.39Z"/>
  <path class="cls-1" d="M44.72,6.07c-6.35,2.21-12.48,5.11-18.27,8.69l-6.83,4.23c.48-.44,9.88-8.78,25.1-12.92Z"/>
  <path class="cls-1" d="M52.91,16.31c-.56.74-.89,1.45-1.01,2.13-.14.67-.11,1.3-.06,1.93.14,1.26.46,2.53.81,3.84.37,1.31.75,2.65,1.17,3.99.19.68.42,1.35.63,2.02.11.33.22.67.33.97l.4.96,7.37,17.41c4.92,11.61,9.62,23.29,14.12,35.06l1.7,4.41,1.66,4.42c1.1,2.95,2.22,5.89,3.29,8.86l6.44,17.77c1.06,2.97,2.17,5.91,3.19,8.9,1.02,2.98,1.93,6.01,2.7,9.09.38,1.54.75,3.09,1.03,4.67l.11.59c.04.18.07.43.11.55.07.29.18.62.3.95.25.67.56,1.35.86,2.05.61,1.4,1.36,2.75,2.12,4.1.39.68.8,1.33,1.25,1.96.45.64.92,1.25,1.56,1.74-.73-.31-1.33-.84-1.91-1.38-.57-.54-1.1-1.13-1.61-1.73-1.02-1.2-1.95-2.48-2.81-3.8-.86-1.32-1.63-2.7-2.15-4.2l-1.72-4.4-6.9-17.6-13.8-35.21-13.8-35.21-6.9-17.6c-.61-1.45-1-2.99-1.36-4.52-.34-1.54-.59-3.1-.68-4.67-.08-1.57,0-3.17.49-4.67.25-.75.62-1.46,1.13-2.06.51-.6,1.18-1.06,1.91-1.34Z"/>
  <g>
    <path class="cls-2" d="M128.66,118.38l-15.14,2.27c-7.02.7-14.04,2.79-20.28,6.01l-7.25,3.62,2.9,7.4,7.94-3.96c5.44-2.81,11.51-4.61,17.58-5.21.06,0,.13-.02.19-.03l16.69-2.51c.26-.04.5-.11.74-.2,1.68-.66,2.59-2.6,1.9-4.36-.83-2.12-3.01-3.38-5.26-3.04Z"/>
    <path class="cls-2" d="M122.85,103.12l-14.61,1.7c-7.7.44-15.37,2.6-22.14,6.23l-6.37,3.28,2.9,7.41,7.14-3.68c5.85-3.14,12.43-4.98,19.01-5.35.08,0,.17,0,.25-.02l16.18-1.89c2.19-.26,3.55-2.52,2.75-4.57l-.02-.06c-.81-2.06-2.9-3.32-5.09-3.06Z"/>
    <path class="cls-2" d="M99.51,41.84l-12.45-.26c-10.35-.69-20.56,1.74-29.51,7.04l-2.9,1.7,2.92,7.46,4-2.35c7.61-4.5,16.27-6.56,25.05-5.95.06,0,.12,0,.19.01l14.03.3c2.41.05,4.09-2.36,3.21-4.6l-.1-.25c-.72-1.84-2.47-3.06-4.43-3.09Z"/>
    <path class="cls-2" d="M93.64,26.44l-11.9-.67c-10.85-.97-21.97,1.6-31.34,7.24l-2.06,1.25,2.93,7.47,3.22-1.96c7.95-4.78,17.4-6.95,26.6-6.12.04,0,.09,0,.13.01l13.46.75c2.45.14,4.22-2.31,3.33-4.59l-.12-.3c-.7-1.77-2.36-2.98-4.26-3.09Z"/>
    <path class="cls-2" d="M117.03,87.84l-14.08,1.16c-8.36.16-16.68,2.39-23.99,6.44l-5.49,2.92,2.9,7.41,6.36-3.38c6.35-3.51,13.53-5.41,20.73-5.49h.03s15.65-1.29,15.65-1.29c2.25-.19,3.68-2.49,2.86-4.59l-.04-.1c-.79-2.01-2.79-3.25-4.93-3.08Z"/>
    <path class="cls-2" d="M105.36,57.21l-13,.18c-9.69-.41-19.27,1.96-27.67,6.84l-3.76,2.13,2.92,7.45,4.78-2.72c7.16-4.15,15.29-6.15,23.5-5.79.08,0,.15,0,.23,0l14.59-.2c2.35-.03,3.95-2.41,3.09-4.6l-.08-.2c-.74-1.88-2.58-3.12-4.6-3.09Z"/>
  </g>
  <polygon class="cls-1" points="47.78 34.6 47.97 34.49 50.9 41.97 50.71 42.08 47.78 34.6"/>
  <path class="cls-2" d="M39.2,10.44c-2.11,1.39-4.14,2.74-5.85,4.36-1.71,1.61-3.03,3.49-3.77,5.58-.76,2.08-.9,4.38-.6,6.67.3,2.29,1.01,4.56,1.89,6.78l-2.72,1.07c5.44-2.12,1.52-.57,2.74-1.03v.04s.04.07.04.07l.06.15.12.29.23.58.46,1.16.93,2.32,1.84,4.65,3.64,9.32,7.23,18.66,7.23,18.66,3.63,9.33,3.68,9.31,14.74,37.22c1.15,3.04,2.67,5.87,4.52,8.49,1.84,2.61,4.03,4.97,6.57,6.86,2.52,1.91,5.4,3.34,8.45,4.18,3.06.83,6.25,1.18,9.51,1.23l-.15.02c.7-.1,1.39-.23,2.09-.31l2.1-.27c1.41-.15,2.81-.31,4.24-.38-1.31.57-2.64,1.04-3.97,1.52l-2.01.67c-.67.23-1.34.42-2.02.63h-.02s-.13.02-.13.02c-3.4.43-6.94.31-10.33-.56-3.39-.85-6.63-2.37-9.48-4.43-5.69-4.15-9.72-10.17-12.16-16.58-4.88-12.42-9.6-24.9-14.47-37.32l-3.62-9.33-3.68-9.31-7.37-18.61-7.37-18.61-3.66-9.31-1.81-4.66-.9-2.33-.45-1.17-.22-.58-.11-.29-.06-.15-.03-.07v-.04c1.19-.49-2.74,1.04,2.69-1.1l-2.72,1.07c-.92-2.38-1.65-4.89-1.94-7.51-.29-2.61-.09-5.39.92-7.94,1-2.55,2.86-4.69,5.02-6.14,2.16-1.47,4.58-2.38,7.05-2.87Z"/>
  <path class="cls-2" d="M15.12,43.44c-1.22,3.72-4.35,6.03-6.99,5.16-2.64-.87-3.79-4.59-2.56-8.3,1.22-3.72,4.35-6.03,6.99-5.16,2.64.87,3.79,4.59,2.56,8.3Z"/>
  <path class="cls-2" d="M21.69,33.04c-.82,1.66-2.44,2.54-3.62,1.96-1.18-.58-1.47-2.4-.66-4.06.82-1.66,2.44-2.54,3.62-1.96s1.47,2.4.66,4.06Z"/>
  <path class="cls-1" d="M111.89,131.71c.15.65.3,1.3.45,1.94,0,0,0,.01,0,.02,4.46,11.37.29,17.21-1.75,19.22-.68.67-1.58,1.08-2.53,1.07-2.81-.03-3.82-3.18-5.95-7.58-2.29-4.75-3.84-10.03-3.84-10.03l5.69-2.65,7.93-1.98Z"/>
  <polygon class="cls-2" points="3.44 59.81 19.11 52.46 4.38 61.55 3.44 59.81"/>
  <g>
    <path class="cls-2" d="M5.08,43.5c1.39-5.33,4.02-10.32,7.63-14.48,2.94-3.38,6.47-5.9,10.25-8.24,7-4.33,14.04-8.61,20.85-13.23-1.85.71-3.7,1.45-5.53,2.21-2.43,1.02-4.8,2.18-7.23,3.2-2.61,1.1-5.3,2.2-7.71,3.7-1.36.84-2.75,1.66-4.09,2.54-5.13,3.33-9.56,8.08-12.76,13.26-3.24,5.25-5.27,11.22-5.76,17.38-.14,1.79-.15,3.59-.03,5.39,0,.33.04.67.08,1.01.12,1.27.3,2.54.55,3.8.1.5.07,1.35.54,1.58.32.16.79.18,1.14.25.74.14,1.49.27,2.24.38-1.7-6.1-1.76-12.61-.15-18.74Z"/>
    <path class="cls-2" d="M9.73,74.25c-.02-.06-.05-.12-.07-.18-.47-1.19,0-2.55,1.08-3.21l20.1-12.21c1.64-1,2.33-3.04,1.63-4.82-.19-.48-.46-.91-.8-1.26-.59-.63-1.37-1.04-2.2-1.19.17.14.34.28.49.44.34.35.61.77.8,1.26.7,1.79.01,3.83-1.63,4.82l-20.85,12.67c-.1-.25-.2-.5-.3-.75-.8.48-1.6.97-2.39,1.45-.54.33-.47.28-.25.85.55,1.4,1.1,2.81,1.65,4.21,1.46.61,2.25.94,3.71,1.55,0,0,.02,0,.03-.01.16-.07.3-.08.32-.21.03-.14-.2-.52-.26-.65-.36-.92-.72-1.83-1.08-2.75Z"/>
    <path class="cls-2" d="M16.78,92.23c-.48-1.22-.96-2.44-1.43-3.66-.28-.71,0-1.51.65-1.89l20.94-12.31c.84-.49,1.44-1.26,1.74-2.12.3-.87.3-1.83-.06-2.74-.11-.27-.24-.52-.39-.75-.61-.93-1.57-1.52-2.61-1.7.35.26.66.58.91.96.15.23.29.48.39.75.36.91.36,1.87.06,2.74-.3.86-.9,1.63-1.74,2.12l-20.93,12.3c-.1-.25-.19-.49-.29-.74-.82.48-1.65.97-2.47,1.45-.52.3-.38.29-.15.84.37.86.73,1.72,1.1,2.58.6,1.42,1.21,2.84,1.81,4.26.37-.16.74-.32,1.11-.48.46-.2,1.12-.35,1.52-.65.21-.16.14,0,.14-.2,0-.21-.22-.56-.3-.75Z"/>
    <path class="cls-2" d="M28.8,122.91c-.36-.91-.71-1.82-1.07-2.73,0,0,0-.01,0-.02-.48-1.23.02-2.63,1.18-3.27l20.22-11.11c1.74-.96,2.5-3.06,1.78-4.91-.53-1.34-1.69-2.23-3-2.44.56.42,1.01.99,1.29,1.7.72,1.85-.04,3.95-1.78,4.91l-21.09,11.59c-.09-.24-.19-.47-.28-.71l-2.5,1.37c-.19.11-.37.13-.38.3-.02.21.28.62.36.81.82,1.84,1.63,3.67,2.45,5.51.13.29.3.99.57,1.01.3.03.91-.37,1.19-.48.35-.14,1.01-.26,1.28-.52.17-.16.09.02.06-.22-.02-.24-.21-.54-.3-.77Z"/>
    <path class="cls-2" d="M33.68,135.36c-.45-1.16.03-2.47,1.13-3.05l20.41-10.86c.89-.48,1.52-1.24,1.85-2.13.33-.88.34-1.88-.02-2.81-.53-1.34-1.69-2.22-2.99-2.45.55.42,1.01.99,1.28,1.7.37.93.35,1.93.02,2.81-.33.89-.96,1.65-1.85,2.13l-21.16,11.25c-.09-.23-.18-.47-.27-.7l-2.51,1.34c-.17.09-.37.14-.39.28-.02.17.29.61.37.76.87,1.8,1.74,3.61,2.61,5.41.1.21.37,1.07.59,1.14.19.06.91-.36,1.09-.44.32-.13,1.01-.25,1.25-.5.19-.2-.16-.73-.27-1.03l-1.13-2.88Z"/>
    <path class="cls-2" d="M106.7,173.95c-3.14.66-6.29,1.33-9.43,1.99-3.92.83-7.83,1.65-11.75,2.48-4.79,1.01-9.62,1.91-14.54,1.35-2.93-.34-5.76-1.2-8.47-2.35-3.16-1.34-6.22-2.93-8.96-5.01-2.91-2.21-5.47-4.9-7.53-7.92-.18-.26-.35-.53-.52-.8l21.87-10.91c.92-.46,1.59-1.23,1.93-2.12.34-.89.36-1.91-.01-2.86-.52-1.34-1.69-2.22-2.99-2.45.55.42,1.01,1,1.28,1.7.38.96.35,1.97.01,2.86-.34.89-1.01,1.66-1.93,2.12l-20.92,10.43c-.07-.12-.14-.23-.21-.35-.24-.41-.4-.15-.8.05-.77.38-1.54.77-2.31,1.15.32.81.93,1.61,1.4,2.34.48.75.99,1.48,1.53,2.18,1.14,1.5,2.39,2.91,3.74,4.23,2.26,2.2,4.83,4.23,7.65,5.68,6.01,3.12,12.76,4.74,19.53,4.62,4.26-.07,8.34-.91,12.41-2.07,3.11-.89,6.22-1.77,9.33-2.66.83-.24,1.66-.47,2.48-.71,1.39-.41,2.78-.84,4.15-1.33.76-.27,1.53-.56,2.26-.93.27-.14.88-.39.94-.75-.05.01-.11.02-.16.03Z"/>
    <path class="cls-2" d="M100.62,176.59c-.2.06-.4.12-.6.18.2-.06.41-.1.6-.18Z"/>
    <path class="cls-2" d="M61.3,137.12c.9-.46,1.56-1.23,1.89-2.12.34-.88.36-1.9-.02-2.84-.53-1.34-1.69-2.22-2.99-2.45.55.42,1.01.99,1.28,1.7.37.95.36,1.96.02,2.84-.33.89-.99,1.66-1.89,2.12l-21.23,10.93c-.09-.23-.18-.46-.27-.68-.45.23-.9.47-1.36.7-.33.17-.66.34-.99.51-.1.05-.51.18-.56.29-.05.1.08.33.14.46.19.48.38.97.57,1.45.47,1.2.94,2.39,1.41,3.59.12.32.22.87.44,1.13.03.04.06.06.08.08,1.48-1.04,1.26-.89,2.74-1.93-.27-.68-.53-1.36-.8-2.04-.49-1.26.05-2.69,1.25-3.3l20.29-10.44Z"/>
    <path class="cls-2" d="M43.03,90.08c.86-.48,1.47-1.25,1.78-2.12.31-.87.32-1.85-.04-2.77-.53-1.34-1.7-2.22-3-2.45.56.42,1.01,1,1.29,1.7.36.92.36,1.9.04,2.77-.3.87-.92,1.63-1.78,2.12l-21,11.94c-.09-.24-.19-.48-.28-.72-.44.25-.89.51-1.33.76-.31.18-.62.35-.93.53-.1.06-.55.23-.6.34-.13.29.6,1.45.74,1.76.53,1.19,1.06,2.37,1.59,3.56.15.33.51,1.62.84,1.72.14.04.5-.13.64-.17l.92-.24c.31-.61.46-.91.77-1.52l-.97-2.48c-.48-1.22.01-2.6,1.15-3.25l20.18-11.47Z"/>
  </g>
  <path class="cls-1" d="M74.67,183.41c-12.98,0-25.5-6.61-32.61-17.94-.44-.7-.56-1.56-.34-2.35.23-.8.78-1.48,1.53-1.85l21.15-10.54c.67-.33,1.18-.9,1.45-1.59.27-.69.26-1.45,0-2.15-.31-.78-.91-1.38-1.7-1.69-.79-.3-1.63-.26-2.39.11l-20.6,10.27c-.78.39-1.7.43-2.52.12-.82-.31-1.47-.96-1.79-1.78l-1.6-4.09c-.55-1.41.05-3.01,1.4-3.7l21.67-11.15c.66-.33,1.16-.9,1.41-1.59.27-.69.26-1.44,0-2.13-.31-.78-.93-1.4-1.72-1.7-.8-.3-1.65-.25-2.4.14l-20.42,10.51c-.79.4-1.71.46-2.54.15-.83-.31-1.49-.96-1.81-1.79l-1.59-4.07c-.55-1.4.04-2.98,1.36-3.68l21.62-11.5c.64-.34,1.13-.91,1.39-1.6.26-.68.25-1.43-.02-2.11-.31-.79-.94-1.41-1.74-1.7-.79-.29-1.67-.23-2.42.17l-20.23,10.76c-.79.42-1.72.48-2.56.17-.84-.31-1.5-.96-1.83-1.79l-1.59-4.06c-.54-1.38.03-2.95,1.33-3.66l21.56-11.85c1.3-.72,1.88-2.3,1.34-3.68-.31-.8-.95-1.42-1.76-1.71-.8-.29-1.69-.22-2.43.19l-20.04,11.02c-.79.43-1.73.51-2.57.2-.85-.31-1.52-.96-1.85-1.8l-1.58-4.03c-.53-1.36.02-2.92,1.29-3.64l21.5-12.22c.63-.35,1.1-.92,1.33-1.59.24-.68.23-1.41-.03-2.08-.31-.8-.96-1.43-1.77-1.71-.81-.29-1.71-.21-2.46.22l-19.84,11.28c-.79.45-1.73.53-2.59.23-.86-.3-1.54-.96-1.87-1.81l-1.57-4.01c-.53-1.36,0-2.88,1.25-3.62l21.45-12.6c.61-.36,1.07-.92,1.31-1.59.23-.67.21-1.38-.05-2.05-.08-.2-.18-.39-.29-.56-.87-1.31-2.62-1.71-3.97-.92l-19.65,11.55c-.79.47-1.74.56-2.61.26-.87-.3-1.56-.96-1.89-1.82l-1.56-3.98c-.52-1.34-.01-2.85,1.22-3.6l21.39-13c1.24-.75,1.75-2.27,1.22-3.62-.14-.36-.34-.67-.59-.94-.96-1.03-2.52-1.24-3.71-.52l-19.06,11.59c-.87.53-1.91.61-2.85.21-.93-.4-1.62-1.22-1.84-2.21-3.74-16.69,3.54-33.97,18.1-42.98l6.86-4.24C44.01,2.73,65.57-1.94,86.65.75l8.44,1.07c3.01.38,5.96,1.17,8.75,2.34l-.76,1.82c-2.63-1.1-5.4-1.84-8.24-2.2l-8.44-1.07C65.77.08,44.67,4.65,26.97,15.6l-6.86,4.24C6.27,28.41-.65,44.84,2.9,60.71c.08.37.33.68.69.83.34.15.73.12,1.05-.08l19.07-11.59c2-1.21,4.59-.85,6.18.85.42.44.76.97,1,1.57.88,2.24.02,4.78-2.04,6.03l-21.39,13c-.41.25-.57.75-.4,1.19l1.56,3.98c.13.32.37.56.7.67.32.11.67.08.96-.1l19.65-11.55c2.26-1.33,5.17-.66,6.62,1.52.2.29.36.61.49.94.43,1.09.46,2.31.07,3.42-.39,1.12-1.16,2.06-2.18,2.65l-21.45,12.6c-.42.24-.59.75-.41,1.2l1.57,4.01c.12.32.37.55.69.67.32.11.66.08.95-.08l19.84-11.28c1.25-.71,2.74-.84,4.1-.36,1.35.48,2.43,1.52,2.95,2.86.44,1.12.46,2.35.05,3.46-.39,1.11-1.18,2.06-2.22,2.64l-21.5,12.22c-.42.24-.6.75-.43,1.2l1.58,4.03c.12.31.36.55.68.66.32.11.65.09.95-.07l20.04-11.01c1.24-.69,2.72-.8,4.06-.32,1.34.48,2.41,1.52,2.92,2.85.9,2.31-.05,4.94-2.22,6.14l-21.56,11.85c-.43.23-.62.75-.44,1.21l1.59,4.06c.12.31.36.55.67.66.31.12.65.09.94-.06l20.23-10.76c1.24-.66,2.71-.76,4.03-.28,1.32.49,2.38,1.52,2.9,2.84.44,1.13.45,2.38.03,3.52-.42,1.14-1.24,2.08-2.31,2.65l-21.62,11.5c-.44.23-.63.75-.45,1.22l1.59,4.07c.12.31.36.54.67.66.31.12.64.1.94-.05l20.41-10.51c1.24-.64,2.69-.73,4-.23,1.31.49,2.36,1.52,2.87,2.83.45,1.15.46,2.41.02,3.56-.43,1.15-1.27,2.09-2.36,2.65l-21.66,11.15c-.45.23-.64.76-.46,1.22l1.6,4.09c.12.3.35.54.66.65.31.12.63.1.93-.04l20.6-10.27c1.24-.62,2.69-.68,3.98-.19,1.29.5,2.32,1.52,2.83,2.81.45,1.16.46,2.43.01,3.58-.45,1.15-1.3,2.1-2.41,2.65l-21.15,10.54c-.25.13-.43.34-.51.62-.07.27-.04.54.11.77,8.55,13.62,25.34,20.05,40.82,15.63l19.01-5.43c3.67-1.05,7.37-2.2,11-3.42l.63,1.87c-3.66,1.23-7.39,2.39-11.09,3.45l-19.01,5.43c-3.45.98-6.96,1.46-10.43,1.46Z"/>
  <g>
    <path class="cls-2" d="M45.03,154.11c1.26-.78,2.55-1.5,3.85-2.2,1.29-.71,2.61-1.38,3.93-2.05,1.32-.65,2.65-1.3,4-1.91,1.34-.61,2.69-1.21,4.08-1.75-1.26.78-2.55,1.5-3.85,2.2-1.29.71-2.61,1.38-3.93,2.04-1.32.65-2.65,1.3-4,1.91-1.34.61-2.69,1.21-4.08,1.75Z"/>
    <path class="cls-2" d="M38.84,138.58c1.26-.81,2.56-1.55,3.86-2.28,1.3-.74,2.62-1.43,3.94-2.13,1.33-.68,2.66-1.36,4.02-1.99,1.35-.64,2.71-1.27,4.1-1.83-1.26.81-2.56,1.55-3.86,2.28-1.3.74-2.62,1.43-3.95,2.13-1.33.68-2.66,1.36-4.02,1.99-1.35.64-2.71,1.27-4.1,1.83Z"/>
    <path class="cls-2" d="M32.65,123.04c1.27-.83,2.57-1.6,3.88-2.36,1.3-.77,2.63-1.49,3.96-2.21,1.34-.71,2.67-1.41,4.03-2.07,1.36-.67,2.72-1.32,4.12-1.92-1.27.83-2.57,1.6-3.88,2.37-1.3.77-2.63,1.49-3.96,2.21-1.34.71-2.67,1.41-4.03,2.07-1.36.67-2.72,1.33-4.12,1.92Z"/>
    <path class="cls-2" d="M26.46,107.51c1.27-.86,2.58-1.66,3.89-2.44,1.31-.79,2.64-1.54,3.98-2.29,1.34-.74,2.68-1.47,4.05-2.16,1.36-.69,2.73-1.38,4.14-2-1.27.86-2.58,1.66-3.89,2.45-1.31.79-2.64,1.54-3.98,2.29-1.34.73-2.68,1.47-4.05,2.16-1.36.7-2.73,1.38-4.14,2Z"/>
    <path class="cls-2" d="M20.27,91.98c1.28-.89,2.59-1.71,3.91-2.53,1.31-.82,2.65-1.6,3.99-2.37,1.35-.76,2.7-1.52,4.07-2.24,1.37-.72,2.74-1.44,4.16-2.09-1.28.89-2.59,1.71-3.9,2.53-1.31.82-2.65,1.6-3.99,2.37-1.35.76-2.7,1.52-4.07,2.24-1.37.72-2.74,1.44-4.16,2.09Z"/>
    <path class="cls-2" d="M14.08,76.45c1.28-.91,2.6-1.77,3.92-2.61,1.32-.85,2.66-1.65,4.01-2.46,1.35-.79,2.71-1.58,4.09-2.32,1.38-.75,2.76-1.49,4.18-2.17-1.28.91-2.6,1.77-3.92,2.61-1.32.85-2.66,1.65-4.01,2.45-1.35.79-2.71,1.58-4.09,2.32-1.38.75-2.76,1.49-4.18,2.17Z"/>
  </g>
  <path class="cls-2" d="M7.37,62.74c1.28-.91,2.6-1.77,3.92-2.61,1.32-.85,2.66-1.65,4.01-2.46,1.35-.79,2.71-1.58,4.09-2.32,1.38-.75,2.76-1.49,4.18-2.17-1.28.91-2.6,1.77-3.92,2.61-1.32.85-2.66,1.65-4.01,2.46-1.35.79-2.71,1.58-4.09,2.32-1.38.75-2.76,1.49-4.18,2.17Z"/>
  <g>
    <path class="cls-2" d="M104.32,72.76l-6.41.31c-9.03-.12-17.97,2.19-25.84,6.64l-1.09.6c-1.74.96-2.5,3.06-1.78,4.91h0c.87,2.22,3.5,3.17,5.59,2.02l1.13-.62c6.72-3.81,14.32-5.75,21.98-5.63.09,0,.17,0,.25,0l6.67-.32c2.79-.13,4.59-3.05,3.39-5.63-.62-1.34-2.43-2.33-3.91-2.26Z"/>
    <path class="cls-2" d="M105.76,76.45l-6.41.31c-9.03-.12-17.97,2.19-25.84,6.64l-1.09.6c-1.74.96-2.5,3.06-1.78,4.91h0c.87,2.22,3.5,3.17,5.59,2.02l1.13-.62c6.72-3.81,14.32-5.75,21.98-5.63.09,0,.17,0,.25,0l6.67-.32c2.79-.13,4.59-3.05,3.39-5.63-.62-1.34-2.43-2.33-3.91-2.26Z"/>
  </g>
  <g>
    <path class="cls-2" d="M134.99,125.22c.69,1.77-.22,3.7-1.9,4.36-.23.09-.48.16-.74.2l-16.69,2.51c-.07.01-.13.02-.19.03-6.06.6-12.14,2.4-17.58,5.21l-15.67,7.81c-2.08,1.04-4.6.07-5.45-2.1h0c-.75-1.91.08-4.07,1.92-4.99l15.62-7.79c6.24-3.22,13.26-5.31,20.28-6.01l15.14-2.27c2.25-.34,4.43.92,5.26,3.04Z"/>
    <path class="cls-2" d="M129.02,109.99l.02.06c.81,2.06-.55,4.32-2.75,4.57l-16.18,1.89c-.08.01-.16.01-.25.02-6.58.36-13.16,2.21-19.01,5.35l-14.79,7.62c-2.09,1.07-4.64.11-5.5-2.07h0c-.74-1.89.07-4.03,1.87-4.96l14.73-7.58c6.77-3.63,14.44-5.79,22.14-6.23l14.61-1.7c2.19-.26,4.29,1,5.09,3.06Z"/>
    <path class="cls-2" d="M105.02,48.73l.1.25c.88,2.24-.81,4.65-3.21,4.6l-14.03-.3c-.06,0-.13,0-.19-.01-8.78-.6-17.44,1.46-25.05,5.95l-11.28,6.62c-2.1,1.23-4.8.3-5.69-1.97h0c-.71-1.81,0-3.87,1.68-4.85l11.26-6.62c8.96-5.3,19.17-7.73,29.51-7.04l12.45.26c1.97.04,3.71,1.26,4.43,3.09Z"/>
    <path class="cls-2" d="M98.98,33.34l.12.3c.89,2.28-.87,4.73-3.33,4.59l-13.46-.75s-.09,0-.13-.01c-9.21-.83-18.65,1.34-26.6,6.12l-10.4,6.32c-2.1,1.28-4.84.35-5.74-1.94h0c-.7-1.79-.01-3.83,1.63-4.82l10.42-6.33c9.37-5.64,20.49-8.21,31.34-7.24l11.9.67c1.91.11,3.57,1.31,4.26,3.09Z"/>
    <path class="cls-2" d="M123.04,94.73l.04.1c.82,2.1-.61,4.4-2.86,4.59l-15.65,1.29s-.02,0-.03,0c-7.2.08-14.38,1.98-20.73,5.49l-13.91,7.4c-2.09,1.11-4.68.15-5.54-2.05h0c-.73-1.87.05-3.99,1.83-4.94l13.86-7.37c7.32-4.05,15.63-6.28,23.99-6.44l14.08-1.16c2.14-.17,4.15,1.07,4.93,3.08Z"/>
    <path class="cls-2" d="M111.04,64.1l.08.2c.86,2.19-.74,4.57-3.09,4.6l-14.59.2c-.08,0-.15,0-.23,0-8.22-.36-16.35,1.64-23.5,5.79l-12.15,6.91c-2.1,1.19-4.76.25-5.64-2h0c-.72-1.83.02-3.91,1.73-4.89l12.12-6.89c8.41-4.87,17.98-7.24,27.67-6.84l13-.18c2.03-.03,3.86,1.21,4.6,3.09Z"/>
  </g>
  <path class="cls-1" d="M134.88,123.14c.69,1.77-.22,3.7-1.9,4.36-.23.09-.48.16-.74.2l-16.69,2.51c-.07.01-.13.02-.19.03-6.06.6-12.14,2.4-17.58,5.21l-15.67,7.81c-2.08,1.04-4.6.07-5.45-2.1h0c-.75-1.91.08-4.07,1.92-4.99l15.62-7.79c6.24-3.22,13.26-5.31,20.28-6.01l15.14-2.27c2.25-.34,4.43.92,5.26,3.04Z"/>
  <path class="cls-1" d="M128.91,107.9l.02.06c.81,2.06-.55,4.32-2.75,4.57l-16.18,1.89c-.08.01-.16.01-.25.02-6.58.36-13.16,2.21-19.01,5.35l-14.79,7.62c-2.09,1.07-4.64.11-5.5-2.07h0c-.74-1.89.07-4.03,1.87-4.96l14.73-7.58c6.77-3.63,14.44-5.79,22.14-6.23l14.61-1.7c2.19-.26,4.29,1,5.09,3.06Z"/>
  <path class="cls-1" d="M104.91,46.65l.1.25c.88,2.24-.81,4.65-3.21,4.6l-14.03-.3c-.06,0-.13,0-.19-.01-8.78-.6-17.44,1.46-25.05,5.95l-11.28,6.62c-2.1,1.23-4.8.3-5.69-1.97h0c-.71-1.81,0-3.87,1.68-4.85l11.26-6.62c8.96-5.3,19.17-7.73,29.51-7.04l12.45.26c1.97.04,3.71,1.26,4.43,3.09Z"/>
  <path class="cls-1" d="M98.88,31.25l.12.3c.89,2.28-.87,4.73-3.33,4.59l-13.46-.75s-.09,0-.13-.01c-9.21-.83-18.65,1.34-26.6,6.12l-10.4,6.32c-2.1,1.28-4.84.35-5.74-1.94h0c-.7-1.79-.01-3.83,1.63-4.82l10.42-6.33c9.37-5.64,20.49-8.21,31.34-7.24l11.9.67c1.91.11,3.57,1.31,4.26,3.09Z"/>
  <path class="cls-1" d="M122.93,92.65l.04.1c.82,2.1-.61,4.4-2.86,4.59l-15.65,1.29s-.02,0-.03,0c-7.2.08-14.38,1.98-20.73,5.49l-13.91,7.4c-2.09,1.11-4.68.15-5.54-2.05h0c-.73-1.87.05-3.99,1.83-4.94l13.86-7.37c7.32-4.05,15.63-6.28,23.99-6.44l14.08-1.16c2.14-.17,4.15,1.07,4.93,3.08Z"/>
  <path class="cls-1" d="M110.93,62.02l.08.2c.86,2.19-.74,4.57-3.09,4.6l-14.59.2c-.08,0-.15,0-.23,0-8.22-.36-16.35,1.64-23.5,5.79l-12.15,6.91c-2.1,1.19-4.76.25-5.64-2h0c-.72-1.83.02-3.91,1.73-4.89l12.12-6.89c8.41-4.87,17.98-7.24,27.67-6.84l13-.18c2.03-.03,3.86,1.21,4.6,3.09Z"/>
  <path class="cls-1" d="M105.04,74.61l-6.41.31c-9.03-.12-17.97,2.19-25.84,6.64l-1.09.6c-1.74.96-2.5,3.06-1.78,4.91h0c.87,2.22,3.5,3.17,5.59,2.02l1.13-.62c6.72-3.81,14.32-5.75,21.98-5.63.09,0,.17,0,.25,0l6.67-.32c2.79-.13,4.59-3.05,3.39-5.63-.62-1.34-2.43-2.33-3.91-2.26Z"/>
  <path class="cls-1" d="M125.83,75.93c1.19,3.04.35,6.22-1.88,7.1-2.23.87-5.01-.88-6.2-3.93-1.19-3.04-.35-6.22,1.88-7.1,2.23-.87,5.01.88,6.2,3.93Z"/>
  <path class="cls-2" d="M124.19,76.58c.73,1.87.29,3.78-.97,4.28-.53.21-1.12.13-1.68-.15.28.04.56.02.82-.09,1.14-.45,1.53-2.17.88-3.85s-2.12-2.68-3.26-2.23c-.02,0-.04.02-.07.03.18-.21.41-.36.66-.46,1.27-.5,2.89.61,3.62,2.48Z"/>
  <g>
    <path class="cls-1" d="M63.28,42.76c1.87-1.23,3.93-2.15,6.06-2.85,2.13-.7,4.35-1.16,6.59-1.4,2.24-.24,4.5-.21,6.73.04.56.06,1.11.15,1.67.24.53.1,1.08.17,1.62.26,1.09.2,2.18.39,3.26.67-1.11.16-2.22.23-3.33.3-.56.02-1.1.05-1.67.06-.55.02-1.09-.01-1.63.02-2.17.04-4.32.17-6.46.39-2.14.23-4.27.52-6.41.92-2.13.4-4.26.89-6.44,1.36Z"/>
    <path class="cls-1" d="M95.27,55.3c-.79.13-1.57.22-2.36.29l-1.17.1-.58.04c-.18.01-.42.03-.52.05h-.09c-.89.04-1.78.06-2.66.13-.88.04-1.77.1-2.64.19-1.76.15-3.51.34-5.24.62-1.74.26-3.47.6-5.21.99-1.74.37-3.47.82-5.26,1.23,1.51-1.04,3.15-1.86,4.85-2.55,1.7-.67,3.47-1.2,5.27-1.57,1.81-.37,3.64-.56,5.48-.61.92,0,1.83,0,2.75.04.91.07,1.83.14,2.73.29h-.09c.3,0,.44.04.66.06l.59.07,1.17.18c.78.12,1.55.28,2.33.45Z"/>
    <path class="cls-1" d="M101.31,70.85c-.78.16-1.56.25-2.34.34l-1.16.13c-.38.04-.79.07-1.11.13h-.07c-.89.07-1.77.12-2.65.21-.88.07-1.76.15-2.63.26-1.75.19-3.49.4-5.21.71-1.72.3-3.44.68-5.16,1.1-1.73.41-3.44.89-5.21,1.33,1.48-1.06,3.1-1.91,4.77-2.64,1.68-.71,3.43-1.27,5.22-1.68,1.79-.41,3.62-.62,5.44-.71.91-.03,1.82-.04,2.73-.03.91.05,1.82.08,2.72.2h-.07c.46,0,.83.06,1.23.09.39.04.78.1,1.17.16.78.11,1.55.25,2.33.4Z"/>
    <path class="cls-1" d="M107.36,86.44c-.77.18-1.55.29-2.32.39-.77.11-1.55.2-2.27.33h-.05c-.88.11-1.76.18-2.64.3-.88.1-1.75.2-2.62.32-1.75.23-3.47.46-5.17.81-1.71.33-3.41.75-5.11,1.21-1.71.44-3.41.96-5.16,1.44,1.45-1.09,3.04-1.97,4.69-2.73,1.66-.74,3.38-1.35,5.16-1.79,1.78-.44,3.6-.68,5.4-.81.9-.05,1.81-.09,2.71-.09.91.02,1.81.03,2.71.11h-.05c.83.01,1.59.09,2.38.18.78.09,1.55.22,2.33.34Z"/>
    <path class="cls-1" d="M113.42,102.06c-1.07.27-2.14.45-3.21.64l-3.21.47c-2.12.31-4.24.62-6.33.98-2.06.36-4.12.85-6.17,1.43-2.05.58-4.1,1.23-6.21,1.86,1.73-1.36,3.67-2.44,5.69-3.31,2.02-.87,4.15-1.55,6.35-1.92,2.17-.37,4.36-.54,6.55-.57.55,0,1.09,0,1.64.02l1.62.08c1.09.08,2.18.16,3.27.33Z"/>
    <path class="cls-1" d="M119.48,117.64c-2.13.54-4.25.93-6.37,1.3l-6.3,1.12c-2.05.39-4.09.92-6.12,1.54-2.03.62-4.06,1.32-6.14,2,1.7-1.39,3.6-2.51,5.6-3.43,2-.92,4.11-1.63,6.3-2.05,2.16-.42,4.33-.63,6.5-.72,2.17-.09,4.35-.05,6.53.24Z"/>
  </g>
  <g>
    <path class="cls-1" d="M124.81,139.24c1.05,2.68,1.31,5.74.81,8.63-.53,2.89-1.76,5.58-3.4,7.85-1.61,2.28-3.64,4.25-5.79,5.83-2.16,1.6-4.43,2.98-6.85,4.06,1.86-1.88,3.65-3.76,5.3-5.71.82-.97,1.61-1.97,2.31-2.97.68-1.01,1.32-2.07,1.88-3.13,1.08-2.16,1.85-4.38,2.16-6.63.33-2.25.18-4.5-.23-6.81v-.05c-.2-1.08.52-2.11,1.6-2.3.95-.17,1.86.37,2.2,1.23Z"/>
    <path class="cls-1" d="M133.49,137.64c.89,2.71.98,5.67.47,8.48-.54,2.81-1.73,5.44-3.29,7.72-1.57,2.29-3.54,4.22-5.64,5.83-2.11,1.61-4.35,3-6.75,4.04,1.87-1.81,3.64-3.66,5.24-5.61.8-.97,1.55-1.96,2.24-2.97.68-1.02,1.28-2.06,1.81-3.12,1.03-2.15,1.72-4.38,2.06-6.64.34-2.26.29-4.53.01-6.82v-.05c-.14-1.09.64-2.08,1.73-2.21.96-.12,1.84.47,2.12,1.35Z"/>
    <path class="cls-1" d="M141.73,136.88c.69,2.71.53,5.56-.13,8.2-.68,2.65-1.9,5.1-3.4,7.3-1.55,2.2-3.4,4.04-5.4,5.65-1,.8-2.04,1.55-3.12,2.21-1.08.67-2.18,1.3-3.33,1.81,1.9-1.64,3.63-3.44,5.18-5.32.77-.94,1.51-1.9,2.17-2.91.66-1,1.28-2,1.77-3.06,1.01-2.1,1.68-4.33,2.04-6.56.37-2.23.46-4.45.33-6.65v-.06c-.07-1.09.76-2.03,1.86-2.1.97-.06,1.81.59,2.04,1.49Z"/>
    <path class="cls-1" d="M149.76,135.08c.66,2.77.4,5.58-.27,8.19-.34,1.31-.82,2.57-1.38,3.79-.56,1.21-1.19,2.4-1.94,3.5-1.52,2.24-3.32,4.09-5.3,5.76-.99.82-2.02,1.59-3.1,2.26-1.08.68-2.18,1.31-3.35,1.8,1.95-1.59,3.66-3.4,5.19-5.31.75-.96,1.49-1.93,2.12-2.96.65-1.03,1.25-2.03,1.72-3.1.97-2.13,1.61-4.39,1.99-6.65.38-2.26.52-4.5.42-6.68v-.07c-.05-1.09.79-2.02,1.89-2.07.97-.04,1.8.61,2.02,1.52Z"/>
    <path class="cls-1" d="M142.01,157.5c2.09-1.2,3.83-2.86,5.33-4.63,1.5-1.77,2.69-3.82,3.71-5.77.98-2.02,1.7-4.2,2.13-6.4.44-2.21.54-4.43.56-6.52v-.06c.01-1.09.91-1.97,2-1.96,1,.01,1.82.76,1.94,1.73.34,2.7-.24,5.28-.97,7.71-.76,2.43-1.8,4.75-3.15,6.92-.34.54-.7,1.07-1.1,1.57-.42.48-.81.96-1.25,1.41-.86.91-1.8,1.74-2.77,2.51-1.94,1.54-4.12,2.78-6.43,3.48Z"/>
  </g>
  <g>
    <path class="cls-1" d="M53.68,3.56c2.17-1.34,4.76-2.03,7.42-2.11,2.66-.08,5.44.52,7.9,1.83,1.22.66,2.37,1.45,3.41,2.37.49.48,1.01.94,1.45,1.46l.68.77.61.81c1.62,2.18,2.8,4.61,3.51,7.12.3,1.06-.31,2.16-1.36,2.46-.93.27-1.89-.17-2.31-1v-.02c-1.09-2.09-2.18-4.1-3.48-5.91-1.28-1.83-2.79-3.42-4.55-4.7-1.76-1.27-3.82-2.19-6.08-2.7-2.26-.5-4.69-.64-7.2-.38Z"/>
    <path class="cls-1" d="M63.64,1.68c2.32-.82,4.9-1.15,7.47-.81,1.29.16,2.57.46,3.8.93.6.26,1.25.46,1.83.78l1.73.99c1.07.77,2.19,1.54,3.08,2.52,1.01.89,1.76,1.97,2.56,3.01.42.52.7,1.1,1.04,1.66.33.56.63,1.14.94,1.71.51,1.18.98,2.38,1.37,3.59.34,1.04-.23,2.15-1.26,2.49-.89.29-1.84-.09-2.31-.86l-.11-.19c-.6-.99-1.09-2.02-1.6-3.03-.29-.48-.59-.96-.86-1.45-.28-.48-.52-1-.87-1.43-1.19-1.88-2.6-3.54-4.19-5.07l-1.28-1.03c-.43-.35-.91-.61-1.37-.93-.45-.34-.98-.52-1.47-.8-.49-.29-1.03-.46-1.55-.69-2.13-.85-4.48-1.24-6.95-1.38Z"/>
    <path class="cls-1" d="M74.07.99c2.32-.57,4.87-.56,7.28.1,2.43.63,4.73,1.81,6.75,3.35.95.82,1.95,1.62,2.75,2.59.88.91,1.61,1.92,2.32,2.94.73,1.02,1.26,2.13,1.87,3.2.5,1.12.96,2.25,1.36,3.4.36,1.03-.19,2.16-1.22,2.52-.88.3-1.83-.05-2.31-.8l-.1-.16c-.61-.94-1.11-1.92-1.64-2.89l-.86-1.39c-.3-.46-.53-.96-.86-1.38-.63-.87-1.18-1.81-1.88-2.61-.63-.87-1.37-1.62-2.08-2.43-1.5-1.49-3.16-2.86-5.05-3.95-1.89-1.11-4-1.88-6.33-2.5Z"/>
    <path class="cls-1" d="M85.11,1.86c2.18-.29,4.49-.09,6.69.6.54.2,1.09.37,1.62.6.52.25,1.06.49,1.56.77l1.5.9,1.4,1.06c.47.35.87.77,1.32,1.16l.63.61.58.65c.38.44.78.87,1.13,1.34l.99,1.43c.16.24.32.48.47.73l.41.76c.28.5.52,1.02.79,1.53.46,1.04.84,2.12,1.18,3.2.32,1.04-.26,2.15-1.31,2.47-.88.27-1.81-.1-2.27-.86l-.11-.17c-.54-.88-.97-1.81-1.43-2.7-.24-.44-.5-.87-.73-1.32l-.35-.67c-.12-.22-.27-.42-.4-.63-.97-1.75-2.15-3.32-3.41-4.87-1.29-1.51-2.8-2.82-4.5-3.95-1.71-1.12-3.64-1.96-5.75-2.64Z"/>
    <path class="cls-1" d="M94.35,3.04c2.13-.04,4.32.26,6.43.93.54.15,1.04.38,1.56.58.51.22,1.01.47,1.53.71.49.28.98.56,1.46.85.46.32.94.63,1.4.96,1.8,1.38,3.44,3.02,4.75,4.88,1.3,1.86,2.31,3.91,2.92,6.05.3,1.05-.31,2.15-1.36,2.46-.91.26-1.86-.16-2.29-.96l-.03-.06c-.96-1.76-1.81-3.51-2.78-5.2-.96-1.69-2.04-3.32-3.37-4.76-1.31-1.46-2.84-2.75-4.56-3.82-1.72-1.08-3.62-1.95-5.65-2.62Z"/>
  </g>
  <path class="cls-2" d="M162.5,352c0-2.33-4.65-4.74-6.19-5.43-9.12-4.08-21.18-8.32-38.21-13.13-7.53-2.13-15.33-3.26-22.97-4.39-.11-.02-1.65-.02-3.19-.02s-3.08,0-3.19.02c-7.64,1.12-15.44,2.26-22.97,4.39-17.03,4.81-29.09,9.05-38.21,13.13-1.53.69-6.19,3.09-6.19,5.43v.03c0,11.44,31.59,20.71,70.55,20.71s70.55-9.27,70.55-20.71v-.03Z"/>
  <polygon class="cls-1" points="105.79 346.59 129.09 367.14 133.81 366.18 105.79 346.59"/>
  <path class="cls-1" d="M105.79,342.47c.38.27,35.17,22.36,35.33,22.36s10.39-3.68,10.39-3.68l-45.72-18.68Z"/>
  <path class="cls-1" d="M103.37,334.39s64.25,15.6,50.64,23.68c0,0,1.89-.28,2.33,0,.44.28,4.07-4.34,4.07-4.34l.9-3.94s-2.96-3.33-16.99-8.04c-14.03-4.71-36.01-10.58-36.01-10.58l-6.13-1.06,1.19,4.27Z"/>
  <path class="cls-1" d="M75.18,331.26c-10.5,1.04-47.61,15.32-47.61,15.32l-2.01,2.87-2.2,2.58,1.87,3.92,8.57,5.36,28.35,7.36-.17-1.21c-14.46-1.47,20.53-22.72,20.53-22.72l.53-4.53s2.64-10-7.86-8.96ZM67.47,346.01c-2.21,1.28-4.47,2.47-6.77,3.58-2.3,1.11-4.64,2.13-7.02,3.07-2.39.92-4.81,1.78-7.34,2.39,2.06-1.6,4.24-2.96,6.45-4.26,2.21-1.28,4.47-2.47,6.77-3.58,2.3-1.11,4.64-2.14,7.02-3.07,2.39-.92,4.81-1.78,7.35-2.39-2.06,1.61-4.24,2.96-6.45,4.26Z"/>
  <path class="cls-2" d="M162.5,352c0-1.21-1.26-2.45-2.69-3.45.04.82.36,1.36.6,2.08.39,1.19.14,2.48-.64,3.46-2.2,2.77-8.41,6.36-18.87,9.43-13.03,3.83-30.42,5.93-48.96,5.93s-35.93-2.11-48.96-5.93c-11.4-3.35-16.59-7.21-17.93-10.05-.36-.77-.26-1.67.27-2.33,2.67-3.28,12.94-7.9,13.99-8.26-.1-.67-8.22,2.12-11.74,3.7-1.53.69-6.19,3.09-6.19,5.43v.03c0,11.44,31.59,20.71,70.55,20.71s70.55-9.27,70.55-20.71v-.03Z"/>
  <g>
    <path class="cls-2" d="M162.5,352.03v13.24c0,13.11-31.59,23.74-70.55,23.74s-70.55-10.63-70.55-23.74v-12.64h.03c1.09,11.16,32.25,20.11,70.53,20.11s70.55-9.27,70.55-20.71Z"/>
    <path class="cls-1" d="M91.94,390c-40.12,0-71.54-10.86-71.54-24.73v-12.64c0-.55.44-.99.99-.99.51,0,.96.39,1.01.89.48,4.9,7.99,9.78,20.61,13.39,13.16,3.76,30.54,5.83,48.94,5.83,37.71,0,69.56-9.03,69.56-19.72,0-.55.44-.99.99-.99s.99.44.99.99v13.24c0,13.87-31.43,24.73-71.54,24.73ZM22.38,357.24v8.03c0,12.33,31.86,22.75,69.57,22.75s69.56-10.42,69.56-22.75v-8.05c-7.48,9.58-35.36,16.51-69.56,16.51-18.58,0-36.15-2.1-49.48-5.91-10.03-2.87-16.92-6.52-20.08-10.58Z"/>
  </g>
  <path class="cls-1" d="M91.94,373.73c-40.12,0-71.54-9.53-71.54-21.7,0-3.09,5.18-5.65,6.77-6.36,9.61-4.3,22.16-8.61,38.35-13.18,7.52-2.12,15.33-3.27,22.89-4.39l.2-.03c.08-.01.24-.04,3.33-.04s3.26.02,3.33.04l.2.03c7.56,1.11,15.37,2.26,22.9,4.39,16.19,4.57,28.73,8.88,38.35,13.18,1.59.71,6.77,3.27,6.77,6.33v.03c0,12.17-31.43,21.7-71.54,21.7ZM91.94,330.02c-1.8,0-2.94.01-3.1.02l-.15.02c-7.49,1.1-15.24,2.24-22.64,4.33-16.1,4.54-28.55,8.82-38.07,13.08-2.75,1.23-5.6,3.26-5.6,4.53,0,10.72,31.86,19.75,69.57,19.75s69.56-9.03,69.56-19.72v-.03c0-1.26-2.85-3.29-5.6-4.53-9.52-4.26-21.98-8.54-38.07-13.08-7.4-2.09-15.15-3.23-22.65-4.33l-.2-.03c-.1,0-1.24-.01-3.04-.01Z"/>
  <g>
    <path class="cls-2" d="M90.95,318.29h-14.18v20.85c0,4.14,6.35,6.84,14.18,6.84s14.18-2.7,14.18-6.84v-20.85h-14.18Z"/>
    <path class="cls-1" d="M90.95,346.97c-8.93,0-15.17-3.22-15.17-7.83v-20.85c0-.55.44-.99.99-.99h28.35c.55,0,.99.44.99.99v20.85c0,4.61-6.24,7.83-15.17,7.83ZM77.77,319.28v19.86c0,3.34,5.67,5.85,13.19,5.85s13.19-2.52,13.19-5.85v-19.86h-26.38Z"/>
  </g>
  <g>
    <path class="cls-2" d="M90.95,318.39h-14.18v20.85c0,4.14,6.35,6.84,14.18,6.84s14.18-2.7,14.18-6.84v-20.85h-14.18Z"/>
    <path class="cls-1" d="M90.95,347.08c-8.93,0-15.17-3.22-15.17-7.83v-20.85c0-.55.44-.99.99-.99h28.35c.55,0,.99.44.99.99v20.85c0,4.61-6.24,7.83-15.17,7.83ZM77.77,319.38v19.86c0,3.34,5.67,5.85,13.19,5.85s13.19-2.52,13.19-5.85v-19.86h-26.38Z"/>
  </g>
  <g>
    <path class="cls-2" d="M122.71,168.53v28.33c0,6.14-4.4,11.4-10.44,12.49l-41.09,7.41c-5.53,1-10.62-3.25-10.62-8.88v-117.54c0-3.78-3.06-6.84-6.84-6.84h-6.15c-3.78,0-6.84,3.06-6.84,6.84v113.39c0,7.69,1.54,11.65,11.43,17.14,9.89,5.49,10.55,6.15,41.76,0,13.19-2.6,22.69-4.96,27.18-6.38,4.93-1.55,7.6-6.14,7.6-11.3v-36.76l-5.99,2.1Z"/>
    <path class="cls-1" d="M65.41,226.25c-5.61,0-8.34-1.52-13.38-4.32l-.36-.2c-10.28-5.71-11.94-9.99-11.94-18.01v-113.39c0-4.32,3.51-7.83,7.83-7.83h6.15c4.32,0,7.83,3.51,7.83,7.83v117.54c0,2.39,1.05,4.63,2.88,6.16,1.83,1.53,4.23,2.17,6.58,1.74l41.09-7.41c5.58-1.01,9.62-5.85,9.62-11.51v-28.33c0-.42.27-.79.66-.93l5.99-2.1c.3-.11.64-.06.9.13.26.19.42.49.42.81v36.76c0,5.94-3.18,10.64-8.29,12.25-4.18,1.32-13.54,3.69-27.29,6.4-15.27,3.01-23.31,4.41-28.7,4.41ZM47.57,84.48c-3.22,0-5.85,2.62-5.85,5.85v113.39c0,7.1,1.03,10.79,10.92,16.28l.36.2c9.28,5.16,10.25,5.7,40.73-.31,13.67-2.69,22.95-5.05,27.08-6.35,4.26-1.34,6.91-5.31,6.91-10.36v-35.37l-4.01,1.41v27.63c0,6.62-4.73,12.28-11.25,13.46l-41.09,7.41c-2.93.53-5.91-.26-8.2-2.17-2.28-1.91-3.59-4.71-3.59-7.68v-117.54c0-3.23-2.62-5.85-5.85-5.85h-6.15Z"/>
  </g>
  <g>
    <path class="cls-2" d="M107.85,179.33v12.64c0,6.14-4.39,11.39-10.43,12.48l-36.3,6.55c1.46,3.97,5.62,6.55,10.07,5.76l41.09-7.41c6.04-1.09,10.44-6.35,10.44-12.49v-17.53h-14.87Z"/>
    <path class="cls-1" d="M69.57,217.89c-4.14,0-7.92-2.56-9.38-6.55-.1-.27-.08-.58.07-.83.15-.25.4-.43.68-.48l36.3-6.55c5.57-1,9.62-5.84,9.62-11.51v-12.64c0-.55.44-.99.99-.99h14.87c.55,0,.99.44.99.99v17.53c0,6.63-4.73,12.29-11.25,13.46l-41.09,7.41c-.6.11-1.2.16-1.79.16ZM62.54,211.74c1.63,2.99,5.02,4.65,8.47,4.03l41.09-7.41c5.58-1,9.62-5.85,9.62-11.52v-16.54h-12.89v11.65c0,6.62-4.73,12.28-11.25,13.46l-35.05,6.32Z"/>
  </g>
  <path class="cls-1" d="M95.52,208.51c-.14-.78-2.73-.97-5.79-.43-3.06.54-5.43,1.62-5.29,2.4.14.78,2.73.97,5.79.43,3.06-.54,5.43-1.62,5.29-2.4Z"/>
  <path class="cls-1" d="M107.85,179.33v12.64c0,4.73-2.61,8.95-6.58,11.12l-1.66,1.81c3.54-1.16,6.18-2.33,9.07-5.19,1.57-1.55,7.72.33,8.6,2.15.88,1.81.55,3.8-1.29,5.07l1.25.37c3.34-2.31,5.49-6.17,5.49-10.44v-17.53h-14.87ZM116.67,198.35l-4.64-1.15c-.96-.24-1.63-1.06-1.63-2.01,0-1.36,1.34-2.35,2.72-2.01l4.64,1.15c.96.24,1.63,1.06,1.63,2.01,0,1.36-1.34,2.35-2.72,2.01Z"/>
  <path class="cls-1" d="M55.02,207.03v-116.88c0-5.28-7.45-6.65-7.45-6.65-3.77,0-6.84,3.06-6.84,6.84v113.39c0,7.69,1.54,11.65,11.43,17.14,4.98,2.77,7.62,4.31,13.02,4.37,0,0,.7-.04,1.54-.07,1.25-.06,1.74-.99,1.73-.99-12.12.16-13.44-8.98-13.44-17.14ZM42.67,93.31c0-3,2.8-4.94,5.72-3.95,2.08.7,3.55,2.71,3.55,4.86v4.78c-6.53-1.16-9.27,1.78-9.27,1.78v-7.46ZM42.66,117.49c0-3,0-10.38,5.72-7.09,2.13,1.23,3.56,2.87,3.56,5.01v38.35c0,3-2.8,2.01-5.72-.05h0c-2.09-1.48-3.56-4.03-3.56-6.18v-30.04ZM44.93,156.92l5.12,2.78c1.05.65,1.77,2.12,1.86,3.07.12,1.36-1.06,3.63-2.56,2.7,0,0-7.15-2.16-7.15-7.7,0-1.31,1.23-1.78,2.73-.85ZM51.69,177.25v11.34c0,.66-.7,1.08-1.28.77l-6.05-3.2c-.75-.4-1.22-1.18-1.22-2.02v-11.36c0-.86,1-1.33,1.66-.78l6.03,3.64c.53.36.85.97.85,1.62Z"/>
  <path class="cls-1" d="M94.65,193.03c-3.4-4.21-9.36-1.67-14.18,1.01-2.07,1.15-4.15,1.3-5.7.41-1.13-.65-1.78-1.77-1.8-3.06,0-1.29,3.27-4.99,7.82-9.1h-5.81c-3.31,3.31-6,6.75-5.96,9.16.04,2.68,1.45,5.09,3.78,6.43,2.78,1.61,6.28,1.47,9.6-.38,7.27-4.05,8.68-2.58,9.14-2.02.6,1.31-.98,7.48-3.39,13.25l3.65,1.53c2.14-5.11,5.34-14.13,2.85-17.23Z"/>
  <path class="cls-1" d="M99.02,315.84l-.11-.41-2.1.97v-.56h-2.07v27.69l2.07-.49c1.28-.4,5.97-2.11,5.97-4.34,0-2.66.1-22.87.1-22.87h-3.87ZM97.33,340.74c-.45,0-.52-.7-.52-2.6v-14.75c0-1.5,1.22-1.61,1.22.33v14.88c0,1.57-.26,2.14-.71,2.14Z"/>
  <path class="cls-1" d="M37.17,364.4v12.36c-7.88-3.48-12.54-7.77-12.54-12.42l.02-7.62c1.19,3.18,4.98,4.78,12.52,7.68Z"/>
  <polygon class="cls-1" points="42.03 366.14 42.03 378.67 45.54 379.8 45.54 367.19 42.03 366.14"/>
  <path class="cls-1" d="M147.35,364.49v12.1c7.64-3.42,12.16-7.65,12.16-12.22v-6.61s-4.85,3.88-12.16,6.73Z"/>
  <polygon class="cls-1" points="142.63 366.43 142.63 378.47 139.23 379.58 139.23 367.47 142.63 366.43"/>
  <path class="cls-1" d="M87.71,316.45v1.83l-2.51-.87v-.96h-5.74s-.55,18.86,0,22.38c.55,3.52,8.24,4.69,8.24,4.69l2.64.13v-27.21h-2.64ZM87.71,337.91l-.06.02c0,1.87-.38,3.08-1.26,3-.88-.08-1.19-.36-1.19-2.17v-13.39c0-.48.08-.97.26-1.41.18-.45.37-.85,1-.84.83,0,1.25.92,1.25,2.07v12.72Z"/>
  <g>
    <ellipse class="cls-2" cx="90.95" cy="318.29" rx="14.18" ry="5.44"/>
    <path class="cls-1" d="M90.95,324.72c-7.35,0-15.17-2.25-15.17-6.43s7.81-6.43,15.17-6.43,15.17,2.25,15.17,6.43-7.81,6.43-15.17,6.43ZM90.95,313.84c-7.55,0-13.19,2.35-13.19,4.45s5.64,4.45,13.19,4.45,13.19-2.35,13.19-4.45-5.64-4.45-13.19-4.45Z"/>
  </g>
  <g>
    <path class="cls-2" d="M81.44,223.25v93.06c0,2.02,4.26,3.65,9.52,3.65s9.52-1.63,9.52-3.65v-96.78l-19.03,3.72Z"/>
    <path class="cls-1" d="M90.95,320.95c-5.22,0-10.51-1.59-10.51-4.64v-93.06c0-.47.33-.88.8-.97l19.03-3.72c.29-.06.59.02.82.21.23.19.36.47.36.76v96.78c0,3.05-5.29,4.64-10.51,4.64ZM82.43,224.06v92.25c0,1.06,3.4,2.66,8.53,2.66s8.53-1.6,8.53-2.66v-95.58l-17.06,3.33Z"/>
  </g>
  <path class="cls-1" d="M89.41,231.09v86.4s-5.37.25-5.37-2.39v-91.85l16.42-3.72s-.52,6.72,0,13.49c.08,1.04-.86,5.32-.83,4.35.02-.74-.12-2.9-.61-3.13-.82-.37-.76,1.94-.79,3.06-.46,15.49-.44,37.64-1.85,72.24-.83-14.66-1-60.67-1-76.57,0-5.69-1.76-6.18-2.28-6.35-3.13-.99-3.7,4.45-3.7,4.45Z"/>
  <path class="cls-2" d="M42.66,202.39c0,3.63-.61,11.87,10.3,16.26-1.27-3.41-1.02-11.36-1.02-11.36,0,0-.85,4.24-4.52,2.2-3.66-2.04-4.65-4.24-4.76-7.1Z"/>
</svg>